%TF.GenerationSoftware,KiCad,Pcbnew,6.0.4-6f826c9f35~116~ubuntu20.04.1*%
%TF.CreationDate,2022-04-08T13:22:16+02:00*%
%TF.ProjectId,BACKUP_PROJECT,4241434b-5550-45f5-9052-4f4a4543542e,rev?*%
%TF.SameCoordinates,Original*%
%TF.FileFunction,Soldermask,Top*%
%TF.FilePolarity,Negative*%
%FSLAX46Y46*%
G04 Gerber Fmt 4.6, Leading zero omitted, Abs format (unit mm)*
G04 Created by KiCad (PCBNEW 6.0.4-6f826c9f35~116~ubuntu20.04.1) date 2022-04-08 13:22:16*
%MOMM*%
%LPD*%
G01*
G04 APERTURE LIST*
G04 Aperture macros list*
%AMRoundRect*
0 Rectangle with rounded corners*
0 $1 Rounding radius*
0 $2 $3 $4 $5 $6 $7 $8 $9 X,Y pos of 4 corners*
0 Add a 4 corners polygon primitive as box body*
4,1,4,$2,$3,$4,$5,$6,$7,$8,$9,$2,$3,0*
0 Add four circle primitives for the rounded corners*
1,1,$1+$1,$2,$3*
1,1,$1+$1,$4,$5*
1,1,$1+$1,$6,$7*
1,1,$1+$1,$8,$9*
0 Add four rect primitives between the rounded corners*
20,1,$1+$1,$2,$3,$4,$5,0*
20,1,$1+$1,$4,$5,$6,$7,0*
20,1,$1+$1,$6,$7,$8,$9,0*
20,1,$1+$1,$8,$9,$2,$3,0*%
G04 Aperture macros list end*
%ADD10C,1.000000*%
%ADD11RoundRect,0.243750X-0.243750X-0.456250X0.243750X-0.456250X0.243750X0.456250X-0.243750X0.456250X0*%
%ADD12R,1.700000X1.700000*%
%ADD13O,1.700000X1.700000*%
%ADD14R,0.500000X0.350000*%
%ADD15RoundRect,0.250000X0.262500X0.450000X-0.262500X0.450000X-0.262500X-0.450000X0.262500X-0.450000X0*%
%ADD16R,0.254000X0.762000*%
%ADD17R,1.905000X1.193800*%
%ADD18RoundRect,0.250000X-0.262500X-0.450000X0.262500X-0.450000X0.262500X0.450000X-0.262500X0.450000X0*%
%ADD19RoundRect,0.250000X0.450000X-0.262500X0.450000X0.262500X-0.450000X0.262500X-0.450000X-0.262500X0*%
%ADD20R,2.000000X2.000000*%
%ADD21C,2.000000*%
%ADD22RoundRect,0.243750X0.243750X0.456250X-0.243750X0.456250X-0.243750X-0.456250X0.243750X-0.456250X0*%
%ADD23O,1.250000X0.950000*%
%ADD24O,0.890000X1.550000*%
G04 APERTURE END LIST*
D10*
%TO.C,TP9*%
X150164800Y-79197200D03*
%TD*%
%TO.C,TP6*%
X140868400Y-89865200D03*
%TD*%
%TO.C,TP8*%
X150393400Y-75641200D03*
%TD*%
D11*
%TO.C,D2*%
X147246100Y-81381600D03*
X149121100Y-81381600D03*
%TD*%
D12*
%TO.C,J1*%
X129946000Y-72517000D03*
D13*
X129946000Y-75057000D03*
X129946000Y-77597000D03*
X129946000Y-80137000D03*
X129946000Y-82677000D03*
X129946000Y-85217000D03*
X129946000Y-87757000D03*
X129946000Y-90297000D03*
%TD*%
D10*
%TO.C,TP2*%
X136880600Y-81940400D03*
%TD*%
D14*
%TO.C,U8*%
X137807600Y-89601400D03*
X137807600Y-90251400D03*
X137807600Y-90901400D03*
X137807600Y-91551400D03*
X136207600Y-91551400D03*
X136207600Y-90901400D03*
X136207600Y-90251400D03*
X136207600Y-89601400D03*
%TD*%
D10*
%TO.C,TP1*%
X133324600Y-79044800D03*
%TD*%
D15*
%TO.C,R7*%
X145846800Y-81381600D03*
X144021800Y-81381600D03*
%TD*%
D16*
%TO.C,U5*%
X135116001Y-81788000D03*
X134616000Y-81788000D03*
X134116000Y-81788000D03*
X133615999Y-81788000D03*
X133615999Y-84226400D03*
X134116000Y-84226400D03*
X134616000Y-84226400D03*
X135116001Y-84226400D03*
D17*
X134366000Y-83007200D03*
%TD*%
D18*
%TO.C,R2*%
X137976600Y-83718400D03*
X139801600Y-83718400D03*
%TD*%
%TO.C,R5*%
X144832700Y-84277200D03*
X146657700Y-84277200D03*
%TD*%
D10*
%TO.C,TP4*%
X143789400Y-87299800D03*
%TD*%
D12*
%TO.C,J2*%
X153162000Y-72517000D03*
D13*
X153162000Y-75057000D03*
X153162000Y-77597000D03*
X153162000Y-80137000D03*
X153162000Y-82677000D03*
X153162000Y-85217000D03*
X153162000Y-87757000D03*
X153162000Y-90297000D03*
%TD*%
D10*
%TO.C,TP10*%
X153543000Y-69062600D03*
%TD*%
%TO.C,TP5*%
X141782800Y-87020400D03*
%TD*%
D19*
%TO.C,R3*%
X132435600Y-83054200D03*
X132435600Y-81229200D03*
%TD*%
D20*
%TO.C,U6*%
X138176000Y-68961000D03*
D21*
X136786000Y-72321000D03*
X138176000Y-75681000D03*
X144896000Y-75681000D03*
X146286000Y-72321000D03*
X144896000Y-68961000D03*
%TD*%
D22*
%TO.C,D1*%
X143357600Y-84277200D03*
X141482600Y-84277200D03*
%TD*%
D10*
%TO.C,TP3*%
X150012400Y-86791800D03*
%TD*%
D23*
%TO.C,J3*%
X130215000Y-70742000D03*
D24*
X136215000Y-68042000D03*
D23*
X135215000Y-70742000D03*
D24*
X129215000Y-68042000D03*
%TD*%
M02*
