%TF.GenerationSoftware,KiCad,Pcbnew,6.0.4-6f826c9f35~116~ubuntu20.04.1*%
%TF.CreationDate,2022-04-08T13:22:15+02:00*%
%TF.ProjectId,BACKUP_PROJECT,4241434b-5550-45f5-9052-4f4a4543542e,rev?*%
%TF.SameCoordinates,Original*%
%TF.FileFunction,Copper,L2,Bot*%
%TF.FilePolarity,Positive*%
%FSLAX46Y46*%
G04 Gerber Fmt 4.6, Leading zero omitted, Abs format (unit mm)*
G04 Created by KiCad (PCBNEW 6.0.4-6f826c9f35~116~ubuntu20.04.1) date 2022-04-08 13:22:15*
%MOMM*%
%LPD*%
G01*
G04 APERTURE LIST*
G04 Aperture macros list*
%AMRoundRect*
0 Rectangle with rounded corners*
0 $1 Rounding radius*
0 $2 $3 $4 $5 $6 $7 $8 $9 X,Y pos of 4 corners*
0 Add a 4 corners polygon primitive as box body*
4,1,4,$2,$3,$4,$5,$6,$7,$8,$9,$2,$3,0*
0 Add four circle primitives for the rounded corners*
1,1,$1+$1,$2,$3*
1,1,$1+$1,$4,$5*
1,1,$1+$1,$6,$7*
1,1,$1+$1,$8,$9*
0 Add four rect primitives between the rounded corners*
20,1,$1+$1,$2,$3,$4,$5,0*
20,1,$1+$1,$4,$5,$6,$7,0*
20,1,$1+$1,$6,$7,$8,$9,0*
20,1,$1+$1,$8,$9,$2,$3,0*%
G04 Aperture macros list end*
%TA.AperFunction,ComponentPad*%
%ADD10R,1.700000X1.700000*%
%TD*%
%TA.AperFunction,ComponentPad*%
%ADD11O,1.700000X1.700000*%
%TD*%
%TA.AperFunction,ComponentPad*%
%ADD12R,2.000000X2.000000*%
%TD*%
%TA.AperFunction,ComponentPad*%
%ADD13C,2.000000*%
%TD*%
%TA.AperFunction,SMDPad,CuDef*%
%ADD14RoundRect,0.250000X0.475000X-0.250000X0.475000X0.250000X-0.475000X0.250000X-0.475000X-0.250000X0*%
%TD*%
%TA.AperFunction,SMDPad,CuDef*%
%ADD15RoundRect,0.250000X-0.250000X-0.475000X0.250000X-0.475000X0.250000X0.475000X-0.250000X0.475000X0*%
%TD*%
%TA.AperFunction,SMDPad,CuDef*%
%ADD16R,0.400000X0.650000*%
%TD*%
%TA.AperFunction,SMDPad,CuDef*%
%ADD17RoundRect,0.140000X0.216520X0.040237X0.002028X0.220218X-0.216520X-0.040237X-0.002028X-0.220218X0*%
%TD*%
%TA.AperFunction,SMDPad,CuDef*%
%ADD18RoundRect,0.250000X-0.262500X-0.450000X0.262500X-0.450000X0.262500X0.450000X-0.262500X0.450000X0*%
%TD*%
%TA.AperFunction,SMDPad,CuDef*%
%ADD19RoundRect,0.250000X-0.475000X0.250000X-0.475000X-0.250000X0.475000X-0.250000X0.475000X0.250000X0*%
%TD*%
%TA.AperFunction,SMDPad,CuDef*%
%ADD20RoundRect,0.062500X-0.062500X0.350000X-0.062500X-0.350000X0.062500X-0.350000X0.062500X0.350000X0*%
%TD*%
%TA.AperFunction,SMDPad,CuDef*%
%ADD21RoundRect,0.062500X-0.350000X0.062500X-0.350000X-0.062500X0.350000X-0.062500X0.350000X0.062500X0*%
%TD*%
%TA.AperFunction,SMDPad,CuDef*%
%ADD22R,2.600000X2.600000*%
%TD*%
%TA.AperFunction,SMDPad,CuDef*%
%ADD23R,1.300000X1.100000*%
%TD*%
%TA.AperFunction,SMDPad,CuDef*%
%ADD24RoundRect,0.250000X-0.450000X0.262500X-0.450000X-0.262500X0.450000X-0.262500X0.450000X0.262500X0*%
%TD*%
%TA.AperFunction,SMDPad,CuDef*%
%ADD25RoundRect,0.250000X0.450000X-0.262500X0.450000X0.262500X-0.450000X0.262500X-0.450000X-0.262500X0*%
%TD*%
%TA.AperFunction,SMDPad,CuDef*%
%ADD26C,1.000000*%
%TD*%
%TA.AperFunction,SMDPad,CuDef*%
%ADD27RoundRect,0.075000X0.662500X0.075000X-0.662500X0.075000X-0.662500X-0.075000X0.662500X-0.075000X0*%
%TD*%
%TA.AperFunction,SMDPad,CuDef*%
%ADD28RoundRect,0.075000X0.075000X0.662500X-0.075000X0.662500X-0.075000X-0.662500X0.075000X-0.662500X0*%
%TD*%
%TA.AperFunction,SMDPad,CuDef*%
%ADD29RoundRect,0.140000X-0.170000X0.140000X-0.170000X-0.140000X0.170000X-0.140000X0.170000X0.140000X0*%
%TD*%
%TA.AperFunction,SMDPad,CuDef*%
%ADD30RoundRect,0.250000X0.250000X0.475000X-0.250000X0.475000X-0.250000X-0.475000X0.250000X-0.475000X0*%
%TD*%
%TA.AperFunction,SMDPad,CuDef*%
%ADD31RoundRect,0.250000X0.262500X0.450000X-0.262500X0.450000X-0.262500X-0.450000X0.262500X-0.450000X0*%
%TD*%
%TA.AperFunction,SMDPad,CuDef*%
%ADD32RoundRect,0.218750X0.381250X-0.218750X0.381250X0.218750X-0.381250X0.218750X-0.381250X-0.218750X0*%
%TD*%
%TA.AperFunction,SMDPad,CuDef*%
%ADD33R,0.400000X1.350000*%
%TD*%
%TA.AperFunction,SMDPad,CuDef*%
%ADD34R,1.500000X1.550000*%
%TD*%
%TA.AperFunction,ComponentPad*%
%ADD35O,1.250000X0.950000*%
%TD*%
%TA.AperFunction,ComponentPad*%
%ADD36O,0.890000X1.550000*%
%TD*%
%TA.AperFunction,SMDPad,CuDef*%
%ADD37R,1.200000X1.550000*%
%TD*%
%TA.AperFunction,SMDPad,CuDef*%
%ADD38R,1.307000X0.457200*%
%TD*%
%TA.AperFunction,SMDPad,CuDef*%
%ADD39RoundRect,0.150000X0.512500X0.150000X-0.512500X0.150000X-0.512500X-0.150000X0.512500X-0.150000X0*%
%TD*%
%TA.AperFunction,SMDPad,CuDef*%
%ADD40RoundRect,0.150000X-0.150000X0.587500X-0.150000X-0.587500X0.150000X-0.587500X0.150000X0.587500X0*%
%TD*%
%TA.AperFunction,ViaPad*%
%ADD41C,0.800000*%
%TD*%
%TA.AperFunction,ViaPad*%
%ADD42C,0.508000*%
%TD*%
%TA.AperFunction,Conductor*%
%ADD43C,0.200000*%
%TD*%
%TA.AperFunction,Conductor*%
%ADD44C,0.304800*%
%TD*%
%TA.AperFunction,Conductor*%
%ADD45C,0.762000*%
%TD*%
%TA.AperFunction,Conductor*%
%ADD46C,0.152400*%
%TD*%
G04 APERTURE END LIST*
D10*
%TO.P,J1,1,Pin_1*%
%TO.N,unconnected-(J1-Pad1)*%
X129946000Y-72517000D03*
D11*
%TO.P,J1,2,Pin_2*%
%TO.N,/RST*%
X129946000Y-75057000D03*
%TO.P,J1,3,Pin_3*%
%TO.N,unconnected-(J1-Pad3)*%
X129946000Y-77597000D03*
%TO.P,J1,4,Pin_4*%
%TO.N,unconnected-(J1-Pad4)*%
X129946000Y-80137000D03*
%TO.P,J1,5,Pin_5*%
%TO.N,unconnected-(J1-Pad5)*%
X129946000Y-82677000D03*
%TO.P,J1,6,Pin_6*%
%TO.N,unconnected-(J1-Pad6)*%
X129946000Y-85217000D03*
%TO.P,J1,7,Pin_7*%
%TO.N,unconnected-(J1-Pad7)*%
X129946000Y-87757000D03*
%TO.P,J1,8,Pin_8*%
%TO.N,GND*%
X129946000Y-90297000D03*
%TD*%
D10*
%TO.P,J2,1,Pin_1*%
%TO.N,unconnected-(J2-Pad1)*%
X153162000Y-72517000D03*
D11*
%TO.P,J2,2,Pin_2*%
%TO.N,/INT*%
X153162000Y-75057000D03*
%TO.P,J2,3,Pin_3*%
%TO.N,/USART1_TX*%
X153162000Y-77597000D03*
%TO.P,J2,4,Pin_4*%
%TO.N,/USART1_RX*%
X153162000Y-80137000D03*
%TO.P,J2,5,Pin_5*%
%TO.N,unconnected-(J2-Pad5)*%
X153162000Y-82677000D03*
%TO.P,J2,6,Pin_6*%
%TO.N,unconnected-(J2-Pad6)*%
X153162000Y-85217000D03*
%TO.P,J2,7,Pin_7*%
%TO.N,unconnected-(J2-Pad7)*%
X153162000Y-87757000D03*
%TO.P,J2,8,Pin_8*%
%TO.N,GND*%
X153162000Y-90297000D03*
%TD*%
D12*
%TO.P,U6,1,B1*%
%TO.N,Net-(R9-Pad1)*%
X138176000Y-68961000D03*
D13*
%TO.P,U6,2,VH+*%
%TO.N,+5V*%
X136786000Y-72321000D03*
%TO.P,U6,3,B2*%
%TO.N,Net-(R9-Pad1)*%
X138176000Y-75681000D03*
%TO.P,U6,4,A2*%
%TO.N,+5V*%
X144896000Y-75681000D03*
%TO.P,U6,5,VH-*%
%TO.N,Net-(R8-Pad1)*%
X146286000Y-72321000D03*
%TO.P,U6,6,A1*%
%TO.N,+5V*%
X144896000Y-68961000D03*
%TD*%
D14*
%TO.P,C12,1*%
%TO.N,+5V*%
X142646400Y-77990800D03*
%TO.P,C12,2*%
%TO.N,GND*%
X142646400Y-76090800D03*
%TD*%
D15*
%TO.P,C7,1*%
%TO.N,+3V3*%
X136819600Y-92913200D03*
%TO.P,C7,2*%
%TO.N,GND*%
X138719600Y-92913200D03*
%TD*%
D16*
%TO.P,U4,1,VIN*%
%TO.N,VBUS*%
X150124400Y-79502000D03*
%TO.P,U4,2,GND*%
%TO.N,GND*%
X150774400Y-79502000D03*
%TO.P,U4,3,EN*%
%TO.N,Net-(Q1-Pad2)*%
X151424400Y-79502000D03*
%TO.P,U4,4,NC*%
%TO.N,unconnected-(U4-Pad4)*%
X151424400Y-81402000D03*
%TO.P,U4,5,VOUT*%
%TO.N,+3V3*%
X150124400Y-81402000D03*
%TD*%
D17*
%TO.P,C2,1*%
%TO.N,VBUS*%
X144385701Y-71323200D03*
%TO.P,C2,2*%
%TO.N,GND*%
X143650299Y-70706124D03*
%TD*%
D14*
%TO.P,C10,1*%
%TO.N,+3V3*%
X144221200Y-81315600D03*
%TO.P,C10,2*%
%TO.N,GND*%
X144221200Y-79415600D03*
%TD*%
D18*
%TO.P,R9,1*%
%TO.N,Net-(R9-Pad1)*%
X152655900Y-68275200D03*
%TO.P,R9,2*%
%TO.N,Net-(R10-Pad1)*%
X154480900Y-68275200D03*
%TD*%
D15*
%TO.P,C13,1*%
%TO.N,VBUS*%
X149062400Y-77774800D03*
%TO.P,C13,2*%
%TO.N,GND*%
X150962400Y-77774800D03*
%TD*%
D19*
%TO.P,C6,1*%
%TO.N,+3V3*%
X146151600Y-88661200D03*
%TO.P,C6,2*%
%TO.N,GND*%
X146151600Y-90561200D03*
%TD*%
D20*
%TO.P,U1,1,~{RI}/CLK*%
%TO.N,unconnected-(U1-Pad1)*%
X140340000Y-70945500D03*
%TO.P,U1,2,GND*%
%TO.N,GND*%
X140840000Y-70945500D03*
%TO.P,U1,3,D+*%
%TO.N,/Power_sheet/D+*%
X141340000Y-70945500D03*
%TO.P,U1,4,D-*%
%TO.N,/Power_sheet/D-*%
X141840000Y-70945500D03*
%TO.P,U1,5,VIO*%
%TO.N,unconnected-(U1-Pad5)*%
X142340000Y-70945500D03*
%TO.P,U1,6,VDD*%
%TO.N,+3V3*%
X142840000Y-70945500D03*
D21*
%TO.P,U1,7,VREGIN*%
%TO.N,VBUS*%
X143527500Y-71633000D03*
%TO.P,U1,8,VBUS*%
X143527500Y-72133000D03*
%TO.P,U1,9,~{RST}*%
%TO.N,Net-(R1-Pad2)*%
X143527500Y-72633000D03*
%TO.P,U1,10,NC*%
%TO.N,unconnected-(U1-Pad10)*%
X143527500Y-73133000D03*
%TO.P,U1,11,~{WAKEUP}/GPIO.3*%
%TO.N,unconnected-(U1-Pad11)*%
X143527500Y-73633000D03*
%TO.P,U1,12,RS485/GPIO.2*%
%TO.N,unconnected-(U1-Pad12)*%
X143527500Y-74133000D03*
D20*
%TO.P,U1,13,~{RXT}/GPIO.1*%
%TO.N,unconnected-(U1-Pad13)*%
X142840000Y-74820500D03*
%TO.P,U1,14,~{TXT}/GPIO.0*%
%TO.N,unconnected-(U1-Pad14)*%
X142340000Y-74820500D03*
%TO.P,U1,15,~{SUSPEND}*%
%TO.N,unconnected-(U1-Pad15)*%
X141840000Y-74820500D03*
%TO.P,U1,16,NC*%
%TO.N,unconnected-(U1-Pad16)*%
X141340000Y-74820500D03*
%TO.P,U1,17,SUSPEND*%
%TO.N,unconnected-(U1-Pad17)*%
X140840000Y-74820500D03*
%TO.P,U1,18,~{CTS}*%
%TO.N,unconnected-(U1-Pad18)*%
X140340000Y-74820500D03*
D21*
%TO.P,U1,19,~{RTS}*%
%TO.N,unconnected-(U1-Pad19)*%
X139652500Y-74133000D03*
%TO.P,U1,20,RXD*%
%TO.N,/USART2_TX*%
X139652500Y-73633000D03*
%TO.P,U1,21,TXD*%
%TO.N,unconnected-(U1-Pad21)*%
X139652500Y-73133000D03*
%TO.P,U1,22,~{DSR}*%
%TO.N,unconnected-(U1-Pad22)*%
X139652500Y-72633000D03*
%TO.P,U1,23,~{DTR}*%
%TO.N,unconnected-(U1-Pad23)*%
X139652500Y-72133000D03*
%TO.P,U1,24,~{DCD}*%
%TO.N,unconnected-(U1-Pad24)*%
X139652500Y-71633000D03*
D22*
%TO.P,U1,25,GND*%
%TO.N,GND*%
X141590000Y-72883000D03*
%TD*%
D23*
%TO.P,X1,1,EN*%
%TO.N,+3V3*%
X150275000Y-88328000D03*
%TO.P,X1,2,GND*%
%TO.N,GND*%
X148175000Y-88328000D03*
%TO.P,X1,3,OUT*%
%TO.N,Net-(U2-Pad5)*%
X148175000Y-86678000D03*
%TO.P,X1,4,Vdd*%
%TO.N,+3V3*%
X150275000Y-86678000D03*
%TD*%
D24*
%TO.P,R11,1*%
%TO.N,/SPI1_MISO*%
X132638800Y-90375100D03*
%TO.P,R11,2*%
%TO.N,GND*%
X132638800Y-92200100D03*
%TD*%
D25*
%TO.P,R12,1*%
%TO.N,+3V3*%
X132638800Y-88798400D03*
%TO.P,R12,2*%
%TO.N,/SPI1_NSS*%
X132638800Y-86973400D03*
%TD*%
D26*
%TO.P,TP7,1,1*%
%TO.N,/SPI1_MOSI*%
X140157200Y-92049600D03*
%TD*%
D27*
%TO.P,U2,1,VBAT*%
%TO.N,+3V3*%
X143735500Y-83406800D03*
%TO.P,U2,2,PC13*%
%TO.N,unconnected-(U2-Pad2)*%
X143735500Y-83906800D03*
%TO.P,U2,3,PC14*%
%TO.N,unconnected-(U2-Pad3)*%
X143735500Y-84406800D03*
%TO.P,U2,4,PC15*%
%TO.N,unconnected-(U2-Pad4)*%
X143735500Y-84906800D03*
%TO.P,U2,5,PD0*%
%TO.N,Net-(U2-Pad5)*%
X143735500Y-85406800D03*
%TO.P,U2,6,PD1*%
%TO.N,unconnected-(U2-Pad6)*%
X143735500Y-85906800D03*
%TO.P,U2,7,NRST*%
%TO.N,Net-(C4-Pad1)*%
X143735500Y-86406800D03*
%TO.P,U2,8,VSSA*%
%TO.N,GND*%
X143735500Y-86906800D03*
%TO.P,U2,9,VDDA*%
%TO.N,+3V3*%
X143735500Y-87406800D03*
%TO.P,U2,10,PA0*%
%TO.N,/ADC1_IN0*%
X143735500Y-87906800D03*
%TO.P,U2,11,PA1*%
%TO.N,unconnected-(U2-Pad11)*%
X143735500Y-88406800D03*
%TO.P,U2,12,PA2*%
%TO.N,/USART2_TX*%
X143735500Y-88906800D03*
D28*
%TO.P,U2,13,PA3*%
%TO.N,unconnected-(U2-Pad13)*%
X142323000Y-90319300D03*
%TO.P,U2,14,PA4*%
%TO.N,/SPI1_NSS*%
X141823000Y-90319300D03*
%TO.P,U2,15,PA5*%
%TO.N,/SPI1_SCK*%
X141323000Y-90319300D03*
%TO.P,U2,16,PA6*%
%TO.N,/SPI1_MISO*%
X140823000Y-90319300D03*
%TO.P,U2,17,PA7*%
%TO.N,/SPI1_MOSI*%
X140323000Y-90319300D03*
%TO.P,U2,18,PB0*%
%TO.N,unconnected-(U2-Pad18)*%
X139823000Y-90319300D03*
%TO.P,U2,19,PB1*%
%TO.N,unconnected-(U2-Pad19)*%
X139323000Y-90319300D03*
%TO.P,U2,20,PB2*%
%TO.N,unconnected-(U2-Pad20)*%
X138823000Y-90319300D03*
%TO.P,U2,21,PB10*%
%TO.N,unconnected-(U2-Pad21)*%
X138323000Y-90319300D03*
%TO.P,U2,22,PB11*%
%TO.N,unconnected-(U2-Pad22)*%
X137823000Y-90319300D03*
%TO.P,U2,23,VSS*%
%TO.N,GND*%
X137323000Y-90319300D03*
%TO.P,U2,24,VDD*%
%TO.N,+3V3*%
X136823000Y-90319300D03*
D27*
%TO.P,U2,25,PB12*%
%TO.N,unconnected-(U2-Pad25)*%
X135410500Y-88906800D03*
%TO.P,U2,26,PB13*%
%TO.N,unconnected-(U2-Pad26)*%
X135410500Y-88406800D03*
%TO.P,U2,27,PB14*%
%TO.N,unconnected-(U2-Pad27)*%
X135410500Y-87906800D03*
%TO.P,U2,28,PB15*%
%TO.N,unconnected-(U2-Pad28)*%
X135410500Y-87406800D03*
%TO.P,U2,29,PA8*%
%TO.N,Net-(D1-Pad2)*%
X135410500Y-86906800D03*
%TO.P,U2,30,PA9*%
%TO.N,/USART1_TX*%
X135410500Y-86406800D03*
%TO.P,U2,31,PA10*%
%TO.N,/USART1_RX*%
X135410500Y-85906800D03*
%TO.P,U2,32,PA11*%
%TO.N,unconnected-(U2-Pad32)*%
X135410500Y-85406800D03*
%TO.P,U2,33,PA12*%
%TO.N,unconnected-(U2-Pad33)*%
X135410500Y-84906800D03*
%TO.P,U2,34,PA13*%
%TO.N,/SWDIO*%
X135410500Y-84406800D03*
%TO.P,U2,35,VSS*%
%TO.N,GND*%
X135410500Y-83906800D03*
%TO.P,U2,36,VDD*%
%TO.N,+3V3*%
X135410500Y-83406800D03*
D28*
%TO.P,U2,37,PA14*%
%TO.N,/SWCLK*%
X136823000Y-81994300D03*
%TO.P,U2,38,PA15*%
%TO.N,unconnected-(U2-Pad38)*%
X137323000Y-81994300D03*
%TO.P,U2,39,PB3*%
%TO.N,unconnected-(U2-Pad39)*%
X137823000Y-81994300D03*
%TO.P,U2,40,PB4*%
%TO.N,unconnected-(U2-Pad40)*%
X138323000Y-81994300D03*
%TO.P,U2,41,PB5*%
%TO.N,unconnected-(U2-Pad41)*%
X138823000Y-81994300D03*
%TO.P,U2,42,PB6*%
%TO.N,/SCL*%
X139323000Y-81994300D03*
%TO.P,U2,43,PB7*%
%TO.N,/SDA*%
X139823000Y-81994300D03*
%TO.P,U2,44,BOOT0*%
%TO.N,Net-(R4-Pad1)*%
X140323000Y-81994300D03*
%TO.P,U2,45,PB8*%
%TO.N,unconnected-(U2-Pad45)*%
X140823000Y-81994300D03*
%TO.P,U2,46,PB9*%
%TO.N,unconnected-(U2-Pad46)*%
X141323000Y-81994300D03*
%TO.P,U2,47,VSS*%
%TO.N,GND*%
X141823000Y-81994300D03*
%TO.P,U2,48,VDD*%
%TO.N,+3V3*%
X142323000Y-81994300D03*
%TD*%
D19*
%TO.P,C18,1*%
%TO.N,+3V3*%
X134620000Y-90302000D03*
%TO.P,C18,2*%
%TO.N,GND*%
X134620000Y-92202000D03*
%TD*%
D24*
%TO.P,R6,1*%
%TO.N,Net-(Q1-Pad2)*%
X147980400Y-82805900D03*
%TO.P,R6,2*%
%TO.N,GND*%
X147980400Y-84630900D03*
%TD*%
D29*
%TO.P,C2,1*%
%TO.N,GND*%
X149047200Y-68709600D03*
%TO.P,C2,2*%
%TO.N,+3V3*%
X149047200Y-69669600D03*
%TD*%
D14*
%TO.P,C8,1*%
%TO.N,+3V3*%
X132892800Y-83210400D03*
%TO.P,C8,2*%
%TO.N,GND*%
X132892800Y-81310400D03*
%TD*%
D19*
%TO.P,C4,1*%
%TO.N,Net-(C4-Pad1)*%
X143916400Y-90947200D03*
%TO.P,C4,2*%
%TO.N,GND*%
X143916400Y-92847200D03*
%TD*%
D30*
%TO.P,C3,1*%
%TO.N,+3V3*%
X150241000Y-90551000D03*
%TO.P,C3,2*%
%TO.N,GND*%
X148341000Y-90551000D03*
%TD*%
D19*
%TO.P,C17,1*%
%TO.N,+5V*%
X147015200Y-74691200D03*
%TO.P,C17,2*%
%TO.N,GND*%
X147015200Y-76591200D03*
%TD*%
D31*
%TO.P,R10,1*%
%TO.N,Net-(R10-Pad1)*%
X154480900Y-70307200D03*
%TO.P,R10,2*%
%TO.N,GND*%
X152655900Y-70307200D03*
%TD*%
D14*
%TO.P,C5,1*%
%TO.N,+3V3*%
X146227800Y-86868000D03*
%TO.P,C5,2*%
%TO.N,GND*%
X146227800Y-84968000D03*
%TD*%
D30*
%TO.P,C15,1*%
%TO.N,+3V3*%
X133654800Y-84683600D03*
%TO.P,C15,2*%
%TO.N,GND*%
X131754800Y-84683600D03*
%TD*%
D32*
%TO.P,L1,1,1*%
%TO.N,Net-(L1-Pad1)*%
X134772400Y-82291700D03*
%TO.P,L1,2,2*%
%TO.N,VBUS*%
X134772400Y-80166700D03*
%TD*%
D18*
%TO.P,R8,1*%
%TO.N,Net-(R8-Pad1)*%
X148845900Y-71882000D03*
%TO.P,R8,2*%
%TO.N,GND*%
X150670900Y-71882000D03*
%TD*%
D14*
%TO.P,C9,1*%
%TO.N,+3V3*%
X146202400Y-81280000D03*
%TO.P,C9,2*%
%TO.N,GND*%
X146202400Y-79380000D03*
%TD*%
D33*
%TO.P,J3,1,VBUS*%
%TO.N,VBUS*%
X131415000Y-70742000D03*
%TO.P,J3,2,D-*%
%TO.N,/Power_sheet/D-*%
X132065000Y-70742000D03*
%TO.P,J3,3,D+*%
%TO.N,/Power_sheet/D+*%
X132715000Y-70742000D03*
%TO.P,J3,4,ID*%
%TO.N,unconnected-(J3-Pad4)*%
X133365000Y-70742000D03*
%TO.P,J3,5,GND*%
%TO.N,GND*%
X134015000Y-70742000D03*
D34*
%TO.P,J3,6,Shield*%
X133715000Y-68042000D03*
D35*
X130215000Y-70742000D03*
D34*
X131715000Y-68042000D03*
D36*
X136215000Y-68042000D03*
D37*
X129815000Y-68042000D03*
D35*
X135215000Y-70742000D03*
D37*
X135615000Y-68042000D03*
D36*
X129215000Y-68042000D03*
%TD*%
D24*
%TO.P,R4,1*%
%TO.N,Net-(R4-Pad1)*%
X131775200Y-78386300D03*
%TO.P,R4,2*%
%TO.N,GND*%
X131775200Y-80211300D03*
%TD*%
D14*
%TO.P,C14,1*%
%TO.N,+3V3*%
X148082000Y-81300400D03*
%TO.P,C14,2*%
%TO.N,GND*%
X148082000Y-79400400D03*
%TD*%
D38*
%TO.P,U3,1,EN*%
%TO.N,Net-(Q1-Pad2)*%
X140886899Y-78069801D03*
%TO.P,U3,2,NC*%
%TO.N,unconnected-(U3-Pad2)*%
X140886899Y-78719799D03*
%TO.P,U3,3,PG*%
%TO.N,unconnected-(U3-Pad3)*%
X140886899Y-79369801D03*
%TO.P,U3,4,Vout*%
%TO.N,+5V*%
X140886899Y-80019799D03*
%TO.P,U3,5,SW*%
%TO.N,Net-(L1-Pad1)*%
X136582701Y-80019799D03*
%TO.P,U3,6,Pgnd*%
%TO.N,GND*%
X136582701Y-79369801D03*
%TO.P,U3,7,Sgnd*%
X136582701Y-78719799D03*
%TO.P,U3,8,Vin*%
%TO.N,VBUS*%
X136582701Y-78069801D03*
%TD*%
D30*
%TO.P,C1,1*%
%TO.N,VBUS*%
X142478800Y-68580000D03*
%TO.P,C1,2*%
%TO.N,GND*%
X140578800Y-68580000D03*
%TD*%
D39*
%TO.P,U7,1*%
%TO.N,/ADC1_IN0*%
X151200700Y-73827600D03*
%TO.P,U7,2,V-*%
%TO.N,GND*%
X151200700Y-74777600D03*
%TO.P,U7,3,+*%
%TO.N,Net-(R10-Pad1)*%
X151200700Y-75727600D03*
%TO.P,U7,4,-*%
%TO.N,/ADC1_IN0*%
X148925700Y-75727600D03*
%TO.P,U7,5,V+*%
%TO.N,+5V*%
X148925700Y-73827600D03*
%TD*%
D40*
%TO.P,Q1,1,G*%
%TO.N,/RST*%
X132527000Y-76583300D03*
%TO.P,Q1,2,S*%
%TO.N,Net-(Q1-Pad2)*%
X134427000Y-76583300D03*
%TO.P,Q1,3,D*%
%TO.N,VBUS*%
X133477000Y-78458300D03*
%TD*%
D14*
%TO.P,C16,1*%
%TO.N,+5V*%
X147066000Y-70139600D03*
%TO.P,C16,2*%
%TO.N,GND*%
X147066000Y-68239600D03*
%TD*%
D24*
%TO.P,R1,1*%
%TO.N,+3V3*%
X150926800Y-68275200D03*
%TO.P,R1,2*%
%TO.N,Net-(R1-Pad2)*%
X150926800Y-70100200D03*
%TD*%
D15*
%TO.P,C11,1*%
%TO.N,VBUS*%
X132704800Y-72999600D03*
%TO.P,C11,2*%
%TO.N,GND*%
X134604800Y-72999600D03*
%TD*%
D41*
%TO.N,VBUS*%
X147370800Y-77825600D03*
X142440475Y-69529148D03*
X144217100Y-77749400D03*
X144805400Y-73964800D03*
X144678400Y-71882000D03*
%TO.N,GND*%
X150164800Y-77774800D03*
X141590000Y-72883000D03*
X154686000Y-73812400D03*
X135720100Y-92532200D03*
X132029200Y-80060800D03*
X131253428Y-81950843D03*
X138303000Y-88874600D03*
X144932400Y-86918800D03*
X142044092Y-80573507D03*
X149301200Y-85039200D03*
X146202400Y-77825600D03*
X146172000Y-85069600D03*
X151790400Y-71475600D03*
X136093200Y-74574400D03*
X136829800Y-84480400D03*
X138099800Y-77876400D03*
X143611600Y-70866000D03*
X140970000Y-92913200D03*
X147116800Y-68224400D03*
X140563600Y-68580000D03*
X142646400Y-76149200D03*
X146024600Y-90830400D03*
X142341600Y-92837000D03*
X139877800Y-76276200D03*
X131673600Y-68072000D03*
%TO.N,+3V3*%
X149108400Y-81366400D03*
X130860800Y-89052400D03*
X133858000Y-89001600D03*
X132435600Y-83054200D03*
X149103100Y-70083700D03*
X133636942Y-85092639D03*
X137972800Y-83718400D03*
%TO.N,Net-(D1-Pad2)*%
X140208000Y-85171411D03*
%TO.N,/SDA*%
X139801600Y-83667600D03*
%TO.N,/SCL*%
X138825568Y-80406779D03*
%TO.N,Net-(R4-Pad1)*%
X131622800Y-77647800D03*
X138378644Y-78902500D03*
D42*
%TO.N,/SPI1_MISO*%
X139280621Y-87528400D03*
D41*
X131216400Y-91592400D03*
D42*
X140808035Y-89112765D03*
%TO.N,/SPI1_NSS*%
X139700000Y-86715600D03*
X141122400Y-86283800D03*
D41*
X133858000Y-88002097D03*
D42*
X140906221Y-87528400D03*
D41*
%TO.N,/ADC1_IN0*%
X145465800Y-92474500D03*
X145198459Y-89630553D03*
X154838400Y-83921600D03*
X155092400Y-80314800D03*
%TO.N,/USART2_TX*%
X143229248Y-80364152D03*
D42*
X150799800Y-80670400D03*
D41*
X151892000Y-83464400D03*
X143967200Y-89712800D03*
X142443200Y-91871800D03*
X137508945Y-73747808D03*
D42*
%TO.N,/SPI1_SCK*%
X140093421Y-87528400D03*
%TO.N,/SPI1_MOSI*%
X138383162Y-87783162D03*
D41*
%TO.N,/USART1_TX*%
X137661923Y-85144548D03*
%TO.N,/USART1_RX*%
X134142975Y-86033645D03*
X155429000Y-85369400D03*
%TO.N,Net-(Q1-Pad2)*%
X139633897Y-78740000D03*
X150332500Y-82727800D03*
X134416800Y-78790800D03*
X146354800Y-82702400D03*
D42*
%TO.N,Net-(R9-Pad1)*%
X152655900Y-68275200D03*
%TD*%
D43*
%TO.N,/SPI1_MISO*%
X139280621Y-87528400D02*
X139280621Y-87566221D01*
X140823000Y-89108600D02*
X140823000Y-90319300D01*
X139280621Y-87566221D02*
X140823000Y-89108600D01*
D44*
%TO.N,VBUS*%
X131415000Y-71826600D02*
X131419600Y-71831200D01*
X133477000Y-78871300D02*
X134772400Y-80166700D01*
X133477000Y-78458300D02*
X133477000Y-78871300D01*
X144678400Y-71882000D02*
X144678400Y-71615899D01*
X131415000Y-70742000D02*
X131415000Y-71826600D01*
X143527500Y-71633000D02*
X143527500Y-71899500D01*
X144678400Y-71882000D02*
X143545000Y-71882000D01*
X149108400Y-77820800D02*
X149062400Y-77774800D01*
D45*
X133477000Y-73888600D02*
X131419600Y-71831200D01*
D44*
X143733311Y-77032911D02*
X136621311Y-77032911D01*
X144217100Y-77516700D02*
X143733311Y-77032911D01*
D45*
X136176301Y-76587901D02*
X136176301Y-77809088D01*
D44*
X143527500Y-71899500D02*
X143527500Y-72133000D01*
D45*
X133477000Y-73888600D02*
X136176301Y-76587901D01*
D44*
X144678400Y-71615899D02*
X144385701Y-71323200D01*
X142440475Y-68618325D02*
X142478800Y-68580000D01*
X142440475Y-69529148D02*
X142440475Y-68618325D01*
X149011600Y-77825600D02*
X149062400Y-77774800D01*
X150124400Y-79502000D02*
X150124400Y-78836800D01*
X147370800Y-77825600D02*
X149011600Y-77825600D01*
X143545000Y-71882000D02*
X143527500Y-71899500D01*
X144217100Y-77749400D02*
X144217100Y-77516700D01*
X136621311Y-77032911D02*
X136176301Y-76587901D01*
X150124400Y-78836800D02*
X149062400Y-77774800D01*
D45*
X133477000Y-78788500D02*
X133477000Y-73888600D01*
D44*
%TO.N,GND*%
X154686000Y-73812400D02*
X152588222Y-73812400D01*
X147980400Y-84630900D02*
X148892900Y-84630900D01*
X149032000Y-68224400D02*
X149047200Y-68239600D01*
D43*
X142341600Y-92837000D02*
X142351800Y-92847200D01*
D44*
X151790400Y-71475600D02*
X151077300Y-71475600D01*
D46*
X149092378Y-79400400D02*
X149721689Y-80029711D01*
D43*
X137312400Y-91643200D02*
X138582400Y-92913200D01*
D46*
X148082000Y-79400400D02*
X149092378Y-79400400D01*
D44*
X149273089Y-89618911D02*
X148341000Y-90551000D01*
X148175000Y-90385000D02*
X148341000Y-90551000D01*
D45*
X146172000Y-85069600D02*
X147541700Y-85069600D01*
D44*
X132080000Y-80497600D02*
X132892800Y-81310400D01*
D43*
X140970000Y-92913200D02*
X138719600Y-92913200D01*
D44*
X136582701Y-79369801D02*
X136582701Y-78719799D01*
X140840000Y-70945500D02*
X140840000Y-72133000D01*
D45*
X134721600Y-72847200D02*
X134145511Y-72271111D01*
D44*
X140840000Y-72133000D02*
X141590000Y-72883000D01*
D45*
X134618100Y-92200100D02*
X134620000Y-92202000D01*
D44*
X146202400Y-79380000D02*
X144256800Y-79380000D01*
D45*
X132638800Y-92200100D02*
X134618100Y-92200100D01*
D44*
X148175000Y-88328000D02*
X148175000Y-90385000D01*
D43*
X135410500Y-83906800D02*
X136256200Y-83906800D01*
X137337800Y-88874600D02*
X138303000Y-88874600D01*
D44*
X149301200Y-85039200D02*
X149273089Y-85067311D01*
X131165600Y-83312000D02*
X131165600Y-82038671D01*
D43*
X137323000Y-90319300D02*
X137323000Y-91086451D01*
D44*
X132892800Y-80924400D02*
X132892800Y-81310400D01*
X150774400Y-79502000D02*
X150774400Y-77962800D01*
D43*
X137312400Y-88900000D02*
X137337800Y-88874600D01*
D44*
X149047200Y-68709600D02*
X149047200Y-68239600D01*
X132029200Y-80060800D02*
X132892800Y-80924400D01*
X150774400Y-77962800D02*
X150962400Y-77774800D01*
D46*
X149721689Y-80029711D02*
X150424489Y-80029711D01*
D43*
X144932400Y-86918800D02*
X143747500Y-86918800D01*
D44*
X148061600Y-79380000D02*
X148082000Y-79400400D01*
D46*
X150424489Y-80029711D02*
X150774400Y-79679800D01*
D44*
X132080000Y-80060800D02*
X132080000Y-80497600D01*
X136093200Y-74574400D02*
X136093200Y-74488000D01*
X141824920Y-80792679D02*
X141824920Y-81229200D01*
D43*
X137312400Y-91097051D02*
X137312400Y-91643200D01*
D44*
X131754800Y-84683600D02*
X131754800Y-83901200D01*
D43*
X142351800Y-92847200D02*
X143916400Y-92847200D01*
D44*
X137541001Y-78719799D02*
X136582701Y-78719799D01*
X135720100Y-92532200D02*
X135389900Y-92202000D01*
X146964400Y-76235600D02*
X146964400Y-77063600D01*
X142044092Y-80573507D02*
X141824920Y-80792679D01*
D43*
X137312400Y-90308700D02*
X137312400Y-88900000D01*
D44*
X151790400Y-71172700D02*
X152655900Y-70307200D01*
D43*
X143747500Y-86918800D02*
X143735500Y-86906800D01*
D44*
X151623022Y-74777600D02*
X151200700Y-74777600D01*
X145999200Y-90805000D02*
X145999200Y-90561200D01*
D45*
X134145511Y-72271111D02*
X134145511Y-70742000D01*
D44*
X146202400Y-79380000D02*
X148061600Y-79380000D01*
D45*
X147541700Y-85069600D02*
X147980400Y-84630900D01*
D44*
X149273089Y-85067311D02*
X149273089Y-89618911D01*
D43*
X138582400Y-92913200D02*
X138719600Y-92913200D01*
D44*
X150774400Y-78435727D02*
X150774400Y-79502000D01*
X150164800Y-77774800D02*
X150962400Y-77774800D01*
X138099800Y-78161000D02*
X137541001Y-78719799D01*
X144256800Y-79380000D02*
X144221200Y-79415600D01*
X138099800Y-77876400D02*
X138099800Y-78161000D01*
D45*
X142437209Y-76299991D02*
X139870756Y-76299991D01*
D44*
X131754800Y-83901200D02*
X131165600Y-83312000D01*
X151077300Y-71475600D02*
X150670900Y-71882000D01*
X146964400Y-77063600D02*
X146202400Y-77825600D01*
X146024600Y-90830400D02*
X145999200Y-90805000D01*
D43*
X137323000Y-91086451D02*
X137312400Y-91097051D01*
D44*
X151790400Y-71475600D02*
X151790400Y-71172700D01*
X150789041Y-78421086D02*
X150774400Y-78435727D01*
D43*
X136256200Y-83906800D02*
X136829800Y-84480400D01*
D46*
X150774400Y-79679800D02*
X150774400Y-79502000D01*
D45*
X142646400Y-76090800D02*
X142437209Y-76299991D01*
D44*
X152588222Y-73812400D02*
X151623022Y-74777600D01*
D45*
X129815000Y-68042000D02*
X135615000Y-68042000D01*
D44*
X147116800Y-68224400D02*
X149032000Y-68224400D01*
X131165600Y-82038671D02*
X131253428Y-81950843D01*
D45*
X145999200Y-85069600D02*
X146172000Y-85069600D01*
D43*
X137323000Y-90319300D02*
X137312400Y-90308700D01*
D44*
X148892900Y-84630900D02*
X149301200Y-85039200D01*
X136093200Y-74488000D02*
X134604800Y-72999600D01*
X146202400Y-77825600D02*
X146202400Y-79380000D01*
X135389900Y-92202000D02*
X134620000Y-92202000D01*
D46*
%TO.N,+3V3*%
X143735500Y-87406800D02*
X143809780Y-87481080D01*
D44*
X137861111Y-84419511D02*
X136846480Y-83404880D01*
D43*
X135410500Y-83406800D02*
X133089200Y-83406800D01*
D45*
X149941800Y-81584600D02*
X149326600Y-81584600D01*
D44*
X133858000Y-89001600D02*
X133858000Y-89540000D01*
X133858000Y-89001600D02*
X132842000Y-89001600D01*
X146202400Y-81777316D02*
X146202400Y-81280000D01*
X133636942Y-83954542D02*
X132892800Y-83210400D01*
X132384800Y-89052400D02*
X132638800Y-88798400D01*
X136819600Y-92501600D02*
X136819600Y-92913200D01*
X132955818Y-85092639D02*
X131586880Y-86461577D01*
X136819600Y-92913200D02*
X136821080Y-92911720D01*
X137972800Y-84307822D02*
X137861111Y-84419511D01*
X142131920Y-83404880D02*
X144574836Y-83404880D01*
X144221200Y-81315600D02*
X142428000Y-81315600D01*
X145999200Y-87833200D02*
X145999200Y-86969600D01*
X145999200Y-88661200D02*
X145999200Y-87833200D01*
X150275000Y-90517000D02*
X150275000Y-86678000D01*
X149164080Y-91627920D02*
X150241000Y-90551000D01*
X145999200Y-87833200D02*
X145836711Y-87670711D01*
X144221200Y-81315600D02*
X142130800Y-83406000D01*
X131586880Y-87746480D02*
X132638800Y-88798400D01*
D45*
X149352000Y-81610000D02*
X149108400Y-81366400D01*
D44*
X148168400Y-71018400D02*
X145084800Y-71018400D01*
D45*
X149326600Y-81584600D02*
X149108400Y-81366400D01*
X149570253Y-83921600D02*
X150281711Y-84633058D01*
D44*
X146288800Y-81366400D02*
X146202400Y-81280000D01*
X142324920Y-81418680D02*
X142324920Y-81994300D01*
D45*
X150281711Y-84633058D02*
X150281711Y-86671289D01*
D44*
X150911600Y-68275200D02*
X149103100Y-70083700D01*
X147340400Y-89662000D02*
X147340400Y-91126643D01*
X134620000Y-90302000D02*
X136819600Y-92501600D01*
X142130800Y-83406000D02*
X141117289Y-84419511D01*
D45*
X149352000Y-83921600D02*
X149570253Y-83921600D01*
D44*
X130860800Y-89052400D02*
X132384800Y-89052400D01*
D43*
X133089200Y-83406800D02*
X132892800Y-83210400D01*
D44*
X142428000Y-81315600D02*
X142324920Y-81418680D01*
X133858000Y-89540000D02*
X134620000Y-90302000D01*
X133636942Y-85092639D02*
X133636942Y-83954542D01*
X145836711Y-87670711D02*
X145008600Y-87670711D01*
X149103100Y-70083700D02*
X148168400Y-71018400D01*
X137972800Y-83718400D02*
X137972800Y-84307822D01*
D45*
X150281711Y-86671289D02*
X150275000Y-86678000D01*
D46*
X144724511Y-87655400D02*
X145008600Y-87655400D01*
D44*
X143967200Y-69900800D02*
X143154400Y-69900800D01*
X144574836Y-83404880D02*
X146202400Y-81777316D01*
X150926800Y-68275200D02*
X150911600Y-68275200D01*
D46*
X143809780Y-87481080D02*
X144550191Y-87481080D01*
D44*
X131586880Y-86461577D02*
X131586880Y-87746480D01*
D45*
X150124400Y-81402000D02*
X149941800Y-81584600D01*
D44*
X145999200Y-88661200D02*
X146339600Y-88661200D01*
X143154400Y-69900800D02*
X142840000Y-70215200D01*
X146339600Y-88661200D02*
X147340400Y-89662000D01*
X132842000Y-89001600D02*
X132638800Y-88798400D01*
X142130800Y-83406000D02*
X142131920Y-83404880D01*
X136821080Y-92911720D02*
X136821080Y-90319300D01*
X147841677Y-91627920D02*
X149164080Y-91627920D01*
D45*
X144272000Y-81366400D02*
X144221200Y-81315600D01*
D44*
X142840000Y-70215200D02*
X142840000Y-70945500D01*
X133636942Y-85092639D02*
X132955818Y-85092639D01*
X136846480Y-83404880D02*
X135410500Y-83404880D01*
X150241000Y-90551000D02*
X150275000Y-90517000D01*
D46*
X144550191Y-87481080D02*
X144724511Y-87655400D01*
D45*
X149352000Y-83921600D02*
X149352000Y-81610000D01*
X149108400Y-81366400D02*
X144272000Y-81366400D01*
D44*
X145084800Y-71018400D02*
X143967200Y-69900800D01*
X147340400Y-91126643D02*
X147841677Y-91627920D01*
X141117289Y-84419511D02*
X137861111Y-84419511D01*
D43*
%TO.N,Net-(C4-Pad1)*%
X141935200Y-87439949D02*
X141935200Y-88182594D01*
X142968349Y-86406800D02*
X141935200Y-87439949D01*
X142976600Y-90007400D02*
X143916400Y-90947200D01*
X142222520Y-88469914D02*
X142222520Y-88951669D01*
X143916400Y-90947200D02*
X143916400Y-90645549D01*
X142976600Y-89705749D02*
X142976600Y-90007400D01*
X142222520Y-88951669D02*
X142976600Y-89705749D01*
X143735500Y-86406800D02*
X142968349Y-86406800D01*
X141935200Y-88182594D02*
X142222520Y-88469914D01*
D44*
%TO.N,+5V*%
X144627600Y-78486000D02*
X143574557Y-78486000D01*
D43*
X141754344Y-79873996D02*
X142290800Y-79873996D01*
D44*
X147015200Y-74691200D02*
X148062100Y-74691200D01*
X148062100Y-74691200D02*
X148925700Y-73827600D01*
X143574557Y-78486000D02*
X143144280Y-78916277D01*
X144896000Y-75681000D02*
X144896000Y-78217600D01*
X144896000Y-78217600D02*
X144627600Y-78486000D01*
D45*
X146074600Y-70139600D02*
X144896000Y-68961000D01*
D43*
X140886899Y-80019799D02*
X141608541Y-80019799D01*
D44*
X143144280Y-79400400D02*
X142723084Y-79821596D01*
X142723084Y-79821596D02*
X142290800Y-79821596D01*
X142646400Y-79744912D02*
X142646400Y-77537231D01*
X142723084Y-79821596D02*
X142646400Y-79744912D01*
X143144280Y-78916277D02*
X143144280Y-79400400D01*
D43*
X141608541Y-80019799D02*
X141754344Y-79873996D01*
D44*
X146025400Y-75681000D02*
X147015200Y-74691200D01*
D45*
X147066000Y-70139600D02*
X146074600Y-70139600D01*
D44*
X144896000Y-75681000D02*
X146025400Y-75681000D01*
D43*
%TO.N,Net-(D1-Pad2)*%
X138781977Y-85511769D02*
X139867642Y-85511769D01*
X137386945Y-86906800D02*
X138781977Y-85511769D01*
X135410500Y-86906800D02*
X137386945Y-86906800D01*
X139867642Y-85511769D02*
X140208000Y-85171411D01*
%TO.N,/RST*%
X132527000Y-75758000D02*
X131826000Y-75057000D01*
X132527000Y-76913500D02*
X132527000Y-75758000D01*
X131826000Y-75057000D02*
X129946000Y-75057000D01*
%TO.N,/Power_sheet/D-*%
X132612502Y-69317498D02*
X132065000Y-69865000D01*
X132065000Y-69865000D02*
X132065000Y-70742000D01*
X135929698Y-69317498D02*
X132612502Y-69317498D01*
X137107700Y-70495500D02*
X135929698Y-69317498D01*
X139941154Y-69783489D02*
X139229143Y-70495500D01*
X141238846Y-69783489D02*
X139941154Y-69783489D01*
X141238846Y-69783489D02*
X141840000Y-70384643D01*
X141840000Y-70384643D02*
X141840000Y-70945500D01*
X139229143Y-70495500D02*
X137107700Y-70495500D01*
%TO.N,/Power_sheet/D+*%
X136921300Y-70945500D02*
X139415527Y-70945500D01*
X132715000Y-69977000D02*
X132924502Y-69767498D01*
X141351000Y-70485000D02*
X141351000Y-70934500D01*
X141351000Y-70934500D02*
X141340000Y-70945500D01*
X140127547Y-70233480D02*
X141099480Y-70233480D01*
X132924502Y-69767498D02*
X135743298Y-69767498D01*
X132715000Y-70742000D02*
X132715000Y-69977000D01*
X135743298Y-69767498D02*
X136921300Y-70945500D01*
X141099480Y-70233480D02*
X141351000Y-70485000D01*
X139415527Y-70945500D02*
X140127547Y-70233480D01*
D44*
%TO.N,Net-(L1-Pad1)*%
X135724320Y-80518000D02*
X136222521Y-80019799D01*
X136222521Y-80019799D02*
X136582701Y-80019799D01*
X134772400Y-82291700D02*
X135724320Y-81339780D01*
X135724320Y-81339780D02*
X135724320Y-80518000D01*
%TO.N,Net-(R1-Pad2)*%
X146918981Y-73599911D02*
X145756257Y-73599911D01*
X149292043Y-72999600D02*
X147519292Y-72999600D01*
X150888957Y-70100200D02*
X149710320Y-71278837D01*
X149710320Y-72581323D02*
X149292043Y-72999600D01*
X144793666Y-72637320D02*
X143527500Y-72637320D01*
X145756257Y-73599911D02*
X144793666Y-72637320D01*
X149710320Y-71278837D02*
X149710320Y-72581323D01*
X150926800Y-70100200D02*
X150888957Y-70100200D01*
X147519292Y-72999600D02*
X146918981Y-73599911D01*
D43*
%TO.N,/SDA*%
X139801600Y-82015700D02*
X139823000Y-81994300D01*
X139801600Y-83667600D02*
X139801600Y-82015700D01*
%TO.N,/SCL*%
X139323000Y-81994300D02*
X139323000Y-80904211D01*
X139323000Y-80904211D02*
X138825568Y-80406779D01*
D44*
%TO.N,Net-(R4-Pad1)*%
X138378644Y-78902500D02*
X138384653Y-78902500D01*
X140321080Y-80838927D02*
X140321080Y-81229200D01*
X138384653Y-78902500D02*
X140321080Y-80838927D01*
X131622800Y-77647800D02*
X132080000Y-78105000D01*
X132080000Y-78105000D02*
X132080000Y-78235800D01*
%TO.N,/SPI1_MISO*%
X131421500Y-91592400D02*
X132638800Y-90375100D01*
X131216400Y-91592400D02*
X131421500Y-91592400D01*
D43*
%TO.N,/SPI1_NSS*%
X133858000Y-88002097D02*
X133667497Y-88002097D01*
X141823000Y-88635400D02*
X141823000Y-90319300D01*
X140906221Y-87528400D02*
X140906221Y-87718621D01*
X141122400Y-86283800D02*
X140701680Y-86283800D01*
X133667497Y-88002097D02*
X132638800Y-86973400D01*
X139700000Y-86715600D02*
X140269880Y-86715600D01*
X140906221Y-87351941D02*
X140906221Y-87528400D01*
X140906221Y-87720970D02*
X140906221Y-87528400D01*
X140906221Y-87718621D02*
X141823000Y-88635400D01*
X140269880Y-86715600D02*
X140906221Y-87351941D01*
X140701680Y-86283800D02*
X140269880Y-86715600D01*
D46*
%TO.N,/ADC1_IN0*%
X145059400Y-88493600D02*
X144472600Y-87906800D01*
X151200700Y-73827600D02*
X150825700Y-73827600D01*
X149961002Y-76762902D02*
X151668477Y-76762902D01*
X145198459Y-89630553D02*
X145059400Y-89491494D01*
X150825700Y-73827600D02*
X148925700Y-75727600D01*
X152984292Y-79011289D02*
X153788889Y-79011289D01*
X153788889Y-79011289D02*
X155092400Y-80314800D01*
X153619200Y-93776800D02*
X154753289Y-92642711D01*
X148925700Y-75727600D02*
X149961002Y-76762902D01*
X151668477Y-76762902D02*
X152036289Y-77130714D01*
X154753289Y-92642711D02*
X154753289Y-84006711D01*
X146768100Y-93776800D02*
X153619200Y-93776800D01*
X145465800Y-92474500D02*
X146768100Y-93776800D01*
X144472600Y-87906800D02*
X143735500Y-87906800D01*
X152036289Y-78063286D02*
X152984292Y-79011289D01*
X152036289Y-77130714D02*
X152036289Y-78063286D01*
X145059400Y-89491494D02*
X145059400Y-88493600D01*
X154753289Y-84006711D02*
X154838400Y-83921600D01*
%TO.N,/USART2_TX*%
X143967200Y-89712800D02*
X144275680Y-89712800D01*
X149152276Y-80364152D02*
X149458524Y-80670400D01*
X151993600Y-83566000D02*
X151892000Y-83464400D01*
X151993600Y-91338400D02*
X151993600Y-83566000D01*
X137508945Y-73747808D02*
X137623753Y-73633000D01*
X144707480Y-88950800D02*
X144707480Y-89281000D01*
X147631240Y-92056040D02*
X151275960Y-92056040D01*
X143735500Y-88906800D02*
X144707480Y-88906800D01*
X142443200Y-91871800D02*
X147447000Y-91871800D01*
X147447000Y-91871800D02*
X147631240Y-92056040D01*
X144275680Y-89712800D02*
X144707480Y-89281000D01*
X151275960Y-92056040D02*
X151993600Y-91338400D01*
X137623753Y-73633000D02*
X139652500Y-73633000D01*
X144707480Y-88906800D02*
X144707480Y-88950800D01*
X143229248Y-80364152D02*
X149152276Y-80364152D01*
X149458524Y-80670400D02*
X150799800Y-80670400D01*
D43*
%TO.N,Net-(U2-Pad5)*%
X144502651Y-85406800D02*
X143735500Y-85406800D01*
X147374400Y-85877400D02*
X144973251Y-85877400D01*
X144973251Y-85877400D02*
X144502651Y-85406800D01*
X148175000Y-86678000D02*
X147374400Y-85877400D01*
%TO.N,/SPI1_SCK*%
X140093421Y-87528400D02*
X140093421Y-87718621D01*
X141323000Y-88948200D02*
X141323000Y-90319300D01*
X140093421Y-87718621D02*
X141323000Y-88948200D01*
%TO.N,/SPI1_MOSI*%
X138546136Y-87783174D02*
X140045242Y-89282280D01*
X140053131Y-89282280D02*
X140323000Y-89552149D01*
X138383158Y-87783174D02*
X138546136Y-87783174D01*
D46*
X140157200Y-92049600D02*
X140323000Y-91883800D01*
X140323000Y-91883800D02*
X140323000Y-90319300D01*
D43*
X140045242Y-89282280D02*
X140053131Y-89282280D01*
X140323000Y-89552149D02*
X140323000Y-90319300D01*
%TO.N,/USART1_TX*%
X137661923Y-85144548D02*
X136399671Y-86406800D01*
X136399671Y-86406800D02*
X135410500Y-86406800D01*
D46*
%TO.N,/USART1_RX*%
X155441111Y-82416111D02*
X155441111Y-85357289D01*
D43*
X134269820Y-85906800D02*
X135410500Y-85906800D01*
D46*
X155441111Y-85357289D02*
X155429000Y-85369400D01*
X153162000Y-80137000D02*
X155441111Y-82416111D01*
D43*
X134142975Y-86033645D02*
X134269820Y-85906800D01*
D44*
%TO.N,Net-(Q1-Pad2)*%
X139950975Y-78069801D02*
X140886899Y-78069801D01*
X151976311Y-82078911D02*
X151976311Y-80590547D01*
X150332500Y-82727800D02*
X150981389Y-82078911D01*
X151424400Y-80038636D02*
X151424400Y-79502000D01*
X151976311Y-80590547D02*
X151424400Y-80038636D01*
X150981389Y-82078911D02*
X151976311Y-82078911D01*
X146354800Y-82702400D02*
X147876900Y-82702400D01*
X139633897Y-78740000D02*
X139633897Y-78386879D01*
X134416800Y-78790800D02*
X134416800Y-76593500D01*
X139633897Y-78386879D02*
X139950975Y-78069801D01*
X134416800Y-76593500D02*
X134427000Y-76583300D01*
X147876900Y-82702400D02*
X147980400Y-82805900D01*
D43*
%TO.N,Net-(R9-Pad1)*%
X151820780Y-67440080D02*
X139696920Y-67440080D01*
X152655900Y-68275200D02*
X151820780Y-67440080D01*
X139696920Y-67440080D02*
X138176000Y-68961000D01*
D44*
%TO.N,Net-(R10-Pad1)*%
X155397200Y-74521560D02*
X155397200Y-71223500D01*
X155397200Y-71223500D02*
X154480900Y-70307200D01*
D43*
X154480900Y-68275200D02*
X154480900Y-70307200D01*
D44*
X151200700Y-75727600D02*
X151732011Y-76258911D01*
X151732011Y-76258911D02*
X153659849Y-76258911D01*
X153659849Y-76258911D02*
X155397200Y-74521560D01*
%TO.N,Net-(R8-Pad1)*%
X146725000Y-71882000D02*
X146286000Y-72321000D01*
X148845900Y-71882000D02*
X146725000Y-71882000D01*
D43*
%TO.N,unconnected-(U1-Pad21)*%
X139620700Y-73101200D02*
X139652500Y-73133000D01*
%TO.N,unconnected-(U2-Pad13)*%
X142323000Y-90913400D02*
X142323000Y-90319300D01*
X142341600Y-90337900D02*
X142323000Y-90319300D01*
X142323000Y-90319300D02*
X142323000Y-90855938D01*
%TD*%
M02*
