%TF.GenerationSoftware,KiCad,Pcbnew,6.0.4-6f826c9f35~116~ubuntu20.04.1*%
%TF.CreationDate,2022-04-08T13:22:16+02:00*%
%TF.ProjectId,BACKUP_PROJECT,4241434b-5550-45f5-9052-4f4a4543542e,rev?*%
%TF.SameCoordinates,Original*%
%TF.FileFunction,Legend,Top*%
%TF.FilePolarity,Positive*%
%FSLAX46Y46*%
G04 Gerber Fmt 4.6, Leading zero omitted, Abs format (unit mm)*
G04 Created by KiCad (PCBNEW 6.0.4-6f826c9f35~116~ubuntu20.04.1) date 2022-04-08 13:22:16*
%MOMM*%
%LPD*%
G01*
G04 APERTURE LIST*
%ADD10C,0.150000*%
%ADD11C,0.120000*%
%ADD12C,0.127000*%
%ADD13C,0.200000*%
G04 APERTURE END LIST*
D10*
%TO.C,TP9*%
X150153914Y-82292371D02*
X150153914Y-81856942D01*
X150915914Y-82074657D02*
X150153914Y-82074657D01*
X150915914Y-81602942D02*
X150153914Y-81602942D01*
X150153914Y-81312657D01*
X150190200Y-81240085D01*
X150226485Y-81203800D01*
X150299057Y-81167514D01*
X150407914Y-81167514D01*
X150480485Y-81203800D01*
X150516771Y-81240085D01*
X150553057Y-81312657D01*
X150553057Y-81602942D01*
X150915914Y-80804657D02*
X150915914Y-80659514D01*
X150879628Y-80586942D01*
X150843342Y-80550657D01*
X150734485Y-80478085D01*
X150589342Y-80441800D01*
X150299057Y-80441800D01*
X150226485Y-80478085D01*
X150190200Y-80514371D01*
X150153914Y-80586942D01*
X150153914Y-80732085D01*
X150190200Y-80804657D01*
X150226485Y-80840942D01*
X150299057Y-80877228D01*
X150480485Y-80877228D01*
X150553057Y-80840942D01*
X150589342Y-80804657D01*
X150625628Y-80732085D01*
X150625628Y-80586942D01*
X150589342Y-80514371D01*
X150553057Y-80478085D01*
X150480485Y-80441800D01*
%TO.C,TP6*%
X140520895Y-87768180D02*
X141092323Y-87768180D01*
X140806609Y-88768180D02*
X140806609Y-87768180D01*
X141425657Y-88768180D02*
X141425657Y-87768180D01*
X141806609Y-87768180D01*
X141901847Y-87815800D01*
X141949466Y-87863419D01*
X141997085Y-87958657D01*
X141997085Y-88101514D01*
X141949466Y-88196752D01*
X141901847Y-88244371D01*
X141806609Y-88291990D01*
X141425657Y-88291990D01*
X142854228Y-87768180D02*
X142663752Y-87768180D01*
X142568514Y-87815800D01*
X142520895Y-87863419D01*
X142425657Y-88006276D01*
X142378038Y-88196752D01*
X142378038Y-88577704D01*
X142425657Y-88672942D01*
X142473276Y-88720561D01*
X142568514Y-88768180D01*
X142758990Y-88768180D01*
X142854228Y-88720561D01*
X142901847Y-88672942D01*
X142949466Y-88577704D01*
X142949466Y-88339609D01*
X142901847Y-88244371D01*
X142854228Y-88196752D01*
X142758990Y-88149133D01*
X142568514Y-88149133D01*
X142473276Y-88196752D01*
X142425657Y-88244371D01*
X142378038Y-88339609D01*
%TO.C,TP8*%
X150712714Y-78507771D02*
X150712714Y-78072342D01*
X151474714Y-78290057D02*
X150712714Y-78290057D01*
X151474714Y-77818342D02*
X150712714Y-77818342D01*
X150712714Y-77528057D01*
X150749000Y-77455485D01*
X150785285Y-77419200D01*
X150857857Y-77382914D01*
X150966714Y-77382914D01*
X151039285Y-77419200D01*
X151075571Y-77455485D01*
X151111857Y-77528057D01*
X151111857Y-77818342D01*
X151039285Y-76947485D02*
X151003000Y-77020057D01*
X150966714Y-77056342D01*
X150894142Y-77092628D01*
X150857857Y-77092628D01*
X150785285Y-77056342D01*
X150749000Y-77020057D01*
X150712714Y-76947485D01*
X150712714Y-76802342D01*
X150749000Y-76729771D01*
X150785285Y-76693485D01*
X150857857Y-76657200D01*
X150894142Y-76657200D01*
X150966714Y-76693485D01*
X151003000Y-76729771D01*
X151039285Y-76802342D01*
X151039285Y-76947485D01*
X151075571Y-77020057D01*
X151111857Y-77056342D01*
X151184428Y-77092628D01*
X151329571Y-77092628D01*
X151402142Y-77056342D01*
X151438428Y-77020057D01*
X151474714Y-76947485D01*
X151474714Y-76802342D01*
X151438428Y-76729771D01*
X151402142Y-76693485D01*
X151329571Y-76657200D01*
X151184428Y-76657200D01*
X151111857Y-76693485D01*
X151075571Y-76729771D01*
X151039285Y-76802342D01*
%TO.C,D2*%
X147595771Y-83351914D02*
X147595771Y-82589914D01*
X147777200Y-82589914D01*
X147886057Y-82626200D01*
X147958628Y-82698771D01*
X147994914Y-82771342D01*
X148031200Y-82916485D01*
X148031200Y-83025342D01*
X147994914Y-83170485D01*
X147958628Y-83243057D01*
X147886057Y-83315628D01*
X147777200Y-83351914D01*
X147595771Y-83351914D01*
X148321485Y-82662485D02*
X148357771Y-82626200D01*
X148430342Y-82589914D01*
X148611771Y-82589914D01*
X148684342Y-82626200D01*
X148720628Y-82662485D01*
X148756914Y-82735057D01*
X148756914Y-82807628D01*
X148720628Y-82916485D01*
X148285200Y-83351914D01*
X148756914Y-83351914D01*
%TO.C,TP2*%
X136234714Y-84984771D02*
X136234714Y-84549342D01*
X136996714Y-84767057D02*
X136234714Y-84767057D01*
X136996714Y-84295342D02*
X136234714Y-84295342D01*
X136234714Y-84005057D01*
X136271000Y-83932485D01*
X136307285Y-83896200D01*
X136379857Y-83859914D01*
X136488714Y-83859914D01*
X136561285Y-83896200D01*
X136597571Y-83932485D01*
X136633857Y-84005057D01*
X136633857Y-84295342D01*
X136307285Y-83569628D02*
X136271000Y-83533342D01*
X136234714Y-83460771D01*
X136234714Y-83279342D01*
X136271000Y-83206771D01*
X136307285Y-83170485D01*
X136379857Y-83134200D01*
X136452428Y-83134200D01*
X136561285Y-83170485D01*
X136996714Y-83605914D01*
X136996714Y-83134200D01*
%TO.C,U8*%
X138433628Y-91327514D02*
X138433628Y-91944371D01*
X138469914Y-92016942D01*
X138506200Y-92053228D01*
X138578771Y-92089514D01*
X138723914Y-92089514D01*
X138796485Y-92053228D01*
X138832771Y-92016942D01*
X138869057Y-91944371D01*
X138869057Y-91327514D01*
X139340771Y-91654085D02*
X139268200Y-91617800D01*
X139231914Y-91581514D01*
X139195628Y-91508942D01*
X139195628Y-91472657D01*
X139231914Y-91400085D01*
X139268200Y-91363800D01*
X139340771Y-91327514D01*
X139485914Y-91327514D01*
X139558485Y-91363800D01*
X139594771Y-91400085D01*
X139631057Y-91472657D01*
X139631057Y-91508942D01*
X139594771Y-91581514D01*
X139558485Y-91617800D01*
X139485914Y-91654085D01*
X139340771Y-91654085D01*
X139268200Y-91690371D01*
X139231914Y-91726657D01*
X139195628Y-91799228D01*
X139195628Y-91944371D01*
X139231914Y-92016942D01*
X139268200Y-92053228D01*
X139340771Y-92089514D01*
X139485914Y-92089514D01*
X139558485Y-92053228D01*
X139594771Y-92016942D01*
X139631057Y-91944371D01*
X139631057Y-91799228D01*
X139594771Y-91726657D01*
X139558485Y-91690371D01*
X139485914Y-91654085D01*
%TO.C,TP1*%
X132062695Y-77049180D02*
X132634123Y-77049180D01*
X132348409Y-78049180D02*
X132348409Y-77049180D01*
X132967457Y-78049180D02*
X132967457Y-77049180D01*
X133348409Y-77049180D01*
X133443647Y-77096800D01*
X133491266Y-77144419D01*
X133538885Y-77239657D01*
X133538885Y-77382514D01*
X133491266Y-77477752D01*
X133443647Y-77525371D01*
X133348409Y-77572990D01*
X132967457Y-77572990D01*
X134491266Y-78049180D02*
X133919838Y-78049180D01*
X134205552Y-78049180D02*
X134205552Y-77049180D01*
X134110314Y-77192038D01*
X134015076Y-77287276D01*
X133919838Y-77334895D01*
%TO.C,R7*%
X144805400Y-83301114D02*
X144551400Y-82938257D01*
X144369971Y-83301114D02*
X144369971Y-82539114D01*
X144660257Y-82539114D01*
X144732828Y-82575400D01*
X144769114Y-82611685D01*
X144805400Y-82684257D01*
X144805400Y-82793114D01*
X144769114Y-82865685D01*
X144732828Y-82901971D01*
X144660257Y-82938257D01*
X144369971Y-82938257D01*
X145059400Y-82539114D02*
X145567400Y-82539114D01*
X145240828Y-83301114D01*
%TO.C,U5*%
X134598228Y-84977514D02*
X134598228Y-85594371D01*
X134634514Y-85666942D01*
X134670800Y-85703228D01*
X134743371Y-85739514D01*
X134888514Y-85739514D01*
X134961085Y-85703228D01*
X134997371Y-85666942D01*
X135033657Y-85594371D01*
X135033657Y-84977514D01*
X135759371Y-84977514D02*
X135396514Y-84977514D01*
X135360228Y-85340371D01*
X135396514Y-85304085D01*
X135469085Y-85267800D01*
X135650514Y-85267800D01*
X135723085Y-85304085D01*
X135759371Y-85340371D01*
X135795657Y-85412942D01*
X135795657Y-85594371D01*
X135759371Y-85666942D01*
X135723085Y-85703228D01*
X135650514Y-85739514D01*
X135469085Y-85739514D01*
X135396514Y-85703228D01*
X135360228Y-85666942D01*
X133818380Y-83007200D02*
X134056476Y-83007200D01*
X133961238Y-83245295D02*
X134056476Y-83007200D01*
X133961238Y-82769104D01*
X134246952Y-83150057D02*
X134056476Y-83007200D01*
X134246952Y-82864342D01*
%TO.C,R2*%
X138811000Y-85536314D02*
X138557000Y-85173457D01*
X138375571Y-85536314D02*
X138375571Y-84774314D01*
X138665857Y-84774314D01*
X138738428Y-84810600D01*
X138774714Y-84846885D01*
X138811000Y-84919457D01*
X138811000Y-85028314D01*
X138774714Y-85100885D01*
X138738428Y-85137171D01*
X138665857Y-85173457D01*
X138375571Y-85173457D01*
X139101285Y-84846885D02*
X139137571Y-84810600D01*
X139210142Y-84774314D01*
X139391571Y-84774314D01*
X139464142Y-84810600D01*
X139500428Y-84846885D01*
X139536714Y-84919457D01*
X139536714Y-84992028D01*
X139500428Y-85100885D01*
X139065000Y-85536314D01*
X139536714Y-85536314D01*
%TO.C,R5*%
X145719800Y-86247514D02*
X145465800Y-85884657D01*
X145284371Y-86247514D02*
X145284371Y-85485514D01*
X145574657Y-85485514D01*
X145647228Y-85521800D01*
X145683514Y-85558085D01*
X145719800Y-85630657D01*
X145719800Y-85739514D01*
X145683514Y-85812085D01*
X145647228Y-85848371D01*
X145574657Y-85884657D01*
X145284371Y-85884657D01*
X146409228Y-85485514D02*
X146046371Y-85485514D01*
X146010085Y-85848371D01*
X146046371Y-85812085D01*
X146118942Y-85775800D01*
X146300371Y-85775800D01*
X146372942Y-85812085D01*
X146409228Y-85848371D01*
X146445514Y-85920942D01*
X146445514Y-86102371D01*
X146409228Y-86174942D01*
X146372942Y-86211228D01*
X146300371Y-86247514D01*
X146118942Y-86247514D01*
X146046371Y-86211228D01*
X146010085Y-86174942D01*
%TO.C,TP4*%
X143462828Y-88533514D02*
X143898257Y-88533514D01*
X143680542Y-89295514D02*
X143680542Y-88533514D01*
X144152257Y-89295514D02*
X144152257Y-88533514D01*
X144442542Y-88533514D01*
X144515114Y-88569800D01*
X144551400Y-88606085D01*
X144587685Y-88678657D01*
X144587685Y-88787514D01*
X144551400Y-88860085D01*
X144515114Y-88896371D01*
X144442542Y-88932657D01*
X144152257Y-88932657D01*
X145240828Y-88787514D02*
X145240828Y-89295514D01*
X145059400Y-88497228D02*
X144877971Y-89041514D01*
X145349685Y-89041514D01*
%TO.C,TP10*%
X151558171Y-67121314D02*
X151993600Y-67121314D01*
X151775885Y-67883314D02*
X151775885Y-67121314D01*
X152247600Y-67883314D02*
X152247600Y-67121314D01*
X152537885Y-67121314D01*
X152610457Y-67157600D01*
X152646742Y-67193885D01*
X152683028Y-67266457D01*
X152683028Y-67375314D01*
X152646742Y-67447885D01*
X152610457Y-67484171D01*
X152537885Y-67520457D01*
X152247600Y-67520457D01*
X153408742Y-67883314D02*
X152973314Y-67883314D01*
X153191028Y-67883314D02*
X153191028Y-67121314D01*
X153118457Y-67230171D01*
X153045885Y-67302742D01*
X152973314Y-67339028D01*
X153880457Y-67121314D02*
X153953028Y-67121314D01*
X154025600Y-67157600D01*
X154061885Y-67193885D01*
X154098171Y-67266457D01*
X154134457Y-67411600D01*
X154134457Y-67593028D01*
X154098171Y-67738171D01*
X154061885Y-67810742D01*
X154025600Y-67847028D01*
X153953028Y-67883314D01*
X153880457Y-67883314D01*
X153807885Y-67847028D01*
X153771600Y-67810742D01*
X153735314Y-67738171D01*
X153699028Y-67593028D01*
X153699028Y-67411600D01*
X153735314Y-67266457D01*
X153771600Y-67193885D01*
X153807885Y-67157600D01*
X153880457Y-67121314D01*
%TO.C,TP5*%
X140872028Y-87771514D02*
X141307457Y-87771514D01*
X141089742Y-88533514D02*
X141089742Y-87771514D01*
X141561457Y-88533514D02*
X141561457Y-87771514D01*
X141851742Y-87771514D01*
X141924314Y-87807800D01*
X141960600Y-87844085D01*
X141996885Y-87916657D01*
X141996885Y-88025514D01*
X141960600Y-88098085D01*
X141924314Y-88134371D01*
X141851742Y-88170657D01*
X141561457Y-88170657D01*
X142686314Y-87771514D02*
X142323457Y-87771514D01*
X142287171Y-88134371D01*
X142323457Y-88098085D01*
X142396028Y-88061800D01*
X142577457Y-88061800D01*
X142650028Y-88098085D01*
X142686314Y-88134371D01*
X142722600Y-88206942D01*
X142722600Y-88388371D01*
X142686314Y-88460942D01*
X142650028Y-88497228D01*
X142577457Y-88533514D01*
X142396028Y-88533514D01*
X142323457Y-88497228D01*
X142287171Y-88460942D01*
%TO.C,R3*%
X132602514Y-84734400D02*
X132239657Y-84988400D01*
X132602514Y-85169828D02*
X131840514Y-85169828D01*
X131840514Y-84879542D01*
X131876800Y-84806971D01*
X131913085Y-84770685D01*
X131985657Y-84734400D01*
X132094514Y-84734400D01*
X132167085Y-84770685D01*
X132203371Y-84806971D01*
X132239657Y-84879542D01*
X132239657Y-85169828D01*
X131840514Y-84480400D02*
X131840514Y-84008685D01*
X132130800Y-84262685D01*
X132130800Y-84153828D01*
X132167085Y-84081257D01*
X132203371Y-84044971D01*
X132275942Y-84008685D01*
X132457371Y-84008685D01*
X132529942Y-84044971D01*
X132566228Y-84081257D01*
X132602514Y-84153828D01*
X132602514Y-84371542D01*
X132566228Y-84444114D01*
X132529942Y-84480400D01*
%TO.C,U6*%
X140774095Y-60773380D02*
X140774095Y-61582904D01*
X140821714Y-61678142D01*
X140869333Y-61725761D01*
X140964571Y-61773380D01*
X141155047Y-61773380D01*
X141250285Y-61725761D01*
X141297904Y-61678142D01*
X141345523Y-61582904D01*
X141345523Y-60773380D01*
X142250285Y-60773380D02*
X142059809Y-60773380D01*
X141964571Y-60821000D01*
X141916952Y-60868619D01*
X141821714Y-61011476D01*
X141774095Y-61201952D01*
X141774095Y-61582904D01*
X141821714Y-61678142D01*
X141869333Y-61725761D01*
X141964571Y-61773380D01*
X142155047Y-61773380D01*
X142250285Y-61725761D01*
X142297904Y-61678142D01*
X142345523Y-61582904D01*
X142345523Y-61344809D01*
X142297904Y-61249571D01*
X142250285Y-61201952D01*
X142155047Y-61154333D01*
X141964571Y-61154333D01*
X141869333Y-61201952D01*
X141821714Y-61249571D01*
X141774095Y-61344809D01*
%TO.C,D1*%
X142693571Y-86145914D02*
X142693571Y-85383914D01*
X142875000Y-85383914D01*
X142983857Y-85420200D01*
X143056428Y-85492771D01*
X143092714Y-85565342D01*
X143129000Y-85710485D01*
X143129000Y-85819342D01*
X143092714Y-85964485D01*
X143056428Y-86037057D01*
X142983857Y-86109628D01*
X142875000Y-86145914D01*
X142693571Y-86145914D01*
X143854714Y-86145914D02*
X143419285Y-86145914D01*
X143637000Y-86145914D02*
X143637000Y-85383914D01*
X143564428Y-85492771D01*
X143491857Y-85565342D01*
X143419285Y-85601628D01*
%TO.C,TP3*%
X148949228Y-88000114D02*
X149384657Y-88000114D01*
X149166942Y-88762114D02*
X149166942Y-88000114D01*
X149638657Y-88762114D02*
X149638657Y-88000114D01*
X149928942Y-88000114D01*
X150001514Y-88036400D01*
X150037800Y-88072685D01*
X150074085Y-88145257D01*
X150074085Y-88254114D01*
X150037800Y-88326685D01*
X150001514Y-88362971D01*
X149928942Y-88399257D01*
X149638657Y-88399257D01*
X150328085Y-88000114D02*
X150799800Y-88000114D01*
X150545800Y-88290400D01*
X150654657Y-88290400D01*
X150727228Y-88326685D01*
X150763514Y-88362971D01*
X150799800Y-88435542D01*
X150799800Y-88616971D01*
X150763514Y-88689542D01*
X150727228Y-88725828D01*
X150654657Y-88762114D01*
X150436942Y-88762114D01*
X150364371Y-88725828D01*
X150328085Y-88689542D01*
D11*
%TO.C,TP9*%
X150864800Y-79197200D02*
G75*
G03*
X150864800Y-79197200I-700000J0D01*
G01*
%TO.C,TP6*%
X141568400Y-89865200D02*
G75*
G03*
X141568400Y-89865200I-700000J0D01*
G01*
%TO.C,TP8*%
X151093400Y-75641200D02*
G75*
G03*
X151093400Y-75641200I-700000J0D01*
G01*
%TO.C,D2*%
X146498600Y-82341600D02*
X149183600Y-82341600D01*
X149183600Y-80421600D02*
X146498600Y-80421600D01*
X146498600Y-80421600D02*
X146498600Y-82341600D01*
%TO.C,J1*%
X131276000Y-73787000D02*
X131276000Y-91627000D01*
X131276000Y-71187000D02*
X131276000Y-72517000D01*
X128616000Y-73787000D02*
X128616000Y-91627000D01*
X128616000Y-73787000D02*
X131276000Y-73787000D01*
X128616000Y-91627000D02*
X131276000Y-91627000D01*
X129946000Y-71187000D02*
X131276000Y-71187000D01*
%TO.C,TP2*%
X137580600Y-81940400D02*
G75*
G03*
X137580600Y-81940400I-700000J0D01*
G01*
D12*
%TO.C,U8*%
X136007600Y-91926400D02*
X138007600Y-91926400D01*
X136007600Y-89226400D02*
X138007600Y-89226400D01*
D13*
X138802600Y-89426400D02*
G75*
G03*
X138802600Y-89426400I-100000J0D01*
G01*
D11*
%TO.C,TP1*%
X134024600Y-79044800D02*
G75*
G03*
X134024600Y-79044800I-700000J0D01*
G01*
%TO.C,R7*%
X145161364Y-80646600D02*
X144707236Y-80646600D01*
X145161364Y-82116600D02*
X144707236Y-82116600D01*
%TO.C,U5*%
X135575741Y-84429600D02*
X135788400Y-84429600D01*
X135788400Y-81584800D02*
X135575741Y-81584800D01*
X132943600Y-81584800D02*
X132943600Y-84429600D01*
X132943600Y-84429600D02*
X133156259Y-84429600D01*
X135788400Y-84429600D02*
X135788400Y-81584800D01*
X133156259Y-81584800D02*
X132943600Y-81584800D01*
X135217600Y-80856200D02*
G75*
G03*
X135217600Y-80856200I-101600J0D01*
G01*
%TO.C,R2*%
X138662036Y-82983400D02*
X139116164Y-82983400D01*
X138662036Y-84453400D02*
X139116164Y-84453400D01*
%TO.C,R5*%
X145518136Y-83542200D02*
X145972264Y-83542200D01*
X145518136Y-85012200D02*
X145972264Y-85012200D01*
%TO.C,TP4*%
X144489400Y-87299800D02*
G75*
G03*
X144489400Y-87299800I-700000J0D01*
G01*
%TO.C,J2*%
X151832000Y-91627000D02*
X154492000Y-91627000D01*
X151832000Y-73787000D02*
X151832000Y-91627000D01*
X154492000Y-73787000D02*
X154492000Y-91627000D01*
X151832000Y-73787000D02*
X154492000Y-73787000D01*
X153162000Y-71187000D02*
X154492000Y-71187000D01*
X154492000Y-71187000D02*
X154492000Y-72517000D01*
%TO.C,TP10*%
X154243000Y-69062600D02*
G75*
G03*
X154243000Y-69062600I-700000J0D01*
G01*
%TO.C,TP5*%
X142482800Y-87020400D02*
G75*
G03*
X142482800Y-87020400I-700000J0D01*
G01*
%TO.C,R3*%
X133170600Y-82368764D02*
X133170600Y-81914636D01*
X131700600Y-82368764D02*
X131700600Y-81914636D01*
%TO.C,U6*%
X151161000Y-72321000D02*
G75*
G03*
X151161000Y-72321000I-9625000J0D01*
G01*
%TO.C,D1*%
X141420100Y-85237200D02*
X144105100Y-85237200D01*
X144105100Y-85237200D02*
X144105100Y-83317200D01*
X144105100Y-83317200D02*
X141420100Y-83317200D01*
%TO.C,TP3*%
X150712400Y-86791800D02*
G75*
G03*
X150712400Y-86791800I-700000J0D01*
G01*
%TD*%
M02*
