%TF.GenerationSoftware,KiCad,Pcbnew,6.0.4-6f826c9f35~116~ubuntu20.04.1*%
%TF.CreationDate,2022-04-08T13:22:16+02:00*%
%TF.ProjectId,BACKUP_PROJECT,4241434b-5550-45f5-9052-4f4a4543542e,rev?*%
%TF.SameCoordinates,Original*%
%TF.FileFunction,Legend,Bot*%
%TF.FilePolarity,Positive*%
%FSLAX46Y46*%
G04 Gerber Fmt 4.6, Leading zero omitted, Abs format (unit mm)*
G04 Created by KiCad (PCBNEW 6.0.4-6f826c9f35~116~ubuntu20.04.1) date 2022-04-08 13:22:16*
%MOMM*%
%LPD*%
G01*
G04 APERTURE LIST*
%ADD10C,0.150000*%
%ADD11C,0.190500*%
%ADD12C,0.120000*%
G04 APERTURE END LIST*
D10*
%TO.C,C12*%
X145219057Y-77589742D02*
X145255342Y-77626028D01*
X145364200Y-77662314D01*
X145436771Y-77662314D01*
X145545628Y-77626028D01*
X145618200Y-77553457D01*
X145654485Y-77480885D01*
X145690771Y-77335742D01*
X145690771Y-77226885D01*
X145654485Y-77081742D01*
X145618200Y-77009171D01*
X145545628Y-76936600D01*
X145436771Y-76900314D01*
X145364200Y-76900314D01*
X145255342Y-76936600D01*
X145219057Y-76972885D01*
X144493342Y-77662314D02*
X144928771Y-77662314D01*
X144711057Y-77662314D02*
X144711057Y-76900314D01*
X144783628Y-77009171D01*
X144856200Y-77081742D01*
X144928771Y-77118028D01*
X144203057Y-76972885D02*
X144166771Y-76936600D01*
X144094200Y-76900314D01*
X143912771Y-76900314D01*
X143840200Y-76936600D01*
X143803914Y-76972885D01*
X143767628Y-77045457D01*
X143767628Y-77118028D01*
X143803914Y-77226885D01*
X144239342Y-77662314D01*
X143767628Y-77662314D01*
%TO.C,C7*%
X136652000Y-91940742D02*
X136688285Y-91977028D01*
X136797142Y-92013314D01*
X136869714Y-92013314D01*
X136978571Y-91977028D01*
X137051142Y-91904457D01*
X137087428Y-91831885D01*
X137123714Y-91686742D01*
X137123714Y-91577885D01*
X137087428Y-91432742D01*
X137051142Y-91360171D01*
X136978571Y-91287600D01*
X136869714Y-91251314D01*
X136797142Y-91251314D01*
X136688285Y-91287600D01*
X136652000Y-91323885D01*
X136398000Y-91251314D02*
X135890000Y-91251314D01*
X136216571Y-92013314D01*
%TO.C,U4*%
X150966714Y-82375828D02*
X151583571Y-82375828D01*
X151656142Y-82412114D01*
X151692428Y-82448400D01*
X151728714Y-82520971D01*
X151728714Y-82666114D01*
X151692428Y-82738685D01*
X151656142Y-82774971D01*
X151583571Y-82811257D01*
X150966714Y-82811257D01*
X151220714Y-83500685D02*
X151728714Y-83500685D01*
X150930428Y-83319257D02*
X151474714Y-83137828D01*
X151474714Y-83609542D01*
%TO.C,C2*%
X145365642Y-70550493D02*
X145361169Y-70499372D01*
X145301104Y-70401604D01*
X145245511Y-70354956D01*
X145138798Y-70312780D01*
X145036557Y-70321725D01*
X144962112Y-70353994D01*
X144841020Y-70441856D01*
X144771048Y-70525246D01*
X144705548Y-70659755D01*
X144686697Y-70738672D01*
X144695642Y-70840913D01*
X144755707Y-70938682D01*
X144811300Y-70985330D01*
X144918013Y-71027505D01*
X144969134Y-71023033D01*
X145191506Y-71209625D02*
X145195978Y-71260745D01*
X145228247Y-71335190D01*
X145367229Y-71451810D01*
X145446146Y-71470662D01*
X145497267Y-71466189D01*
X145571711Y-71433920D01*
X145618359Y-71378327D01*
X145660535Y-71271614D01*
X145606865Y-70658168D01*
X145968219Y-70961380D01*
%TO.C,C10*%
X144787257Y-82644342D02*
X144823542Y-82680628D01*
X144932400Y-82716914D01*
X145004971Y-82716914D01*
X145113828Y-82680628D01*
X145186400Y-82608057D01*
X145222685Y-82535485D01*
X145258971Y-82390342D01*
X145258971Y-82281485D01*
X145222685Y-82136342D01*
X145186400Y-82063771D01*
X145113828Y-81991200D01*
X145004971Y-81954914D01*
X144932400Y-81954914D01*
X144823542Y-81991200D01*
X144787257Y-82027485D01*
X144061542Y-82716914D02*
X144496971Y-82716914D01*
X144279257Y-82716914D02*
X144279257Y-81954914D01*
X144351828Y-82063771D01*
X144424400Y-82136342D01*
X144496971Y-82172628D01*
X143589828Y-81954914D02*
X143517257Y-81954914D01*
X143444685Y-81991200D01*
X143408400Y-82027485D01*
X143372114Y-82100057D01*
X143335828Y-82245200D01*
X143335828Y-82426628D01*
X143372114Y-82571771D01*
X143408400Y-82644342D01*
X143444685Y-82680628D01*
X143517257Y-82716914D01*
X143589828Y-82716914D01*
X143662400Y-82680628D01*
X143698685Y-82644342D01*
X143734971Y-82571771D01*
X143771257Y-82426628D01*
X143771257Y-82245200D01*
X143734971Y-82100057D01*
X143698685Y-82027485D01*
X143662400Y-81991200D01*
X143589828Y-81954914D01*
%TO.C,R9*%
X155487914Y-71856600D02*
X155125057Y-71602600D01*
X155487914Y-71421171D02*
X154725914Y-71421171D01*
X154725914Y-71711457D01*
X154762200Y-71784028D01*
X154798485Y-71820314D01*
X154871057Y-71856600D01*
X154979914Y-71856600D01*
X155052485Y-71820314D01*
X155088771Y-71784028D01*
X155125057Y-71711457D01*
X155125057Y-71421171D01*
X155487914Y-72219457D02*
X155487914Y-72364600D01*
X155451628Y-72437171D01*
X155415342Y-72473457D01*
X155306485Y-72546028D01*
X155161342Y-72582314D01*
X154871057Y-72582314D01*
X154798485Y-72546028D01*
X154762200Y-72509742D01*
X154725914Y-72437171D01*
X154725914Y-72292028D01*
X154762200Y-72219457D01*
X154798485Y-72183171D01*
X154871057Y-72146885D01*
X155052485Y-72146885D01*
X155125057Y-72183171D01*
X155161342Y-72219457D01*
X155197628Y-72292028D01*
X155197628Y-72437171D01*
X155161342Y-72509742D01*
X155125057Y-72546028D01*
X155052485Y-72582314D01*
%TO.C,C13*%
X153042257Y-79113742D02*
X153078542Y-79150028D01*
X153187400Y-79186314D01*
X153259971Y-79186314D01*
X153368828Y-79150028D01*
X153441400Y-79077457D01*
X153477685Y-79004885D01*
X153513971Y-78859742D01*
X153513971Y-78750885D01*
X153477685Y-78605742D01*
X153441400Y-78533171D01*
X153368828Y-78460600D01*
X153259971Y-78424314D01*
X153187400Y-78424314D01*
X153078542Y-78460600D01*
X153042257Y-78496885D01*
X152316542Y-79186314D02*
X152751971Y-79186314D01*
X152534257Y-79186314D02*
X152534257Y-78424314D01*
X152606828Y-78533171D01*
X152679400Y-78605742D01*
X152751971Y-78642028D01*
X152062542Y-78424314D02*
X151590828Y-78424314D01*
X151844828Y-78714600D01*
X151735971Y-78714600D01*
X151663400Y-78750885D01*
X151627114Y-78787171D01*
X151590828Y-78859742D01*
X151590828Y-79041171D01*
X151627114Y-79113742D01*
X151663400Y-79150028D01*
X151735971Y-79186314D01*
X151953685Y-79186314D01*
X152026257Y-79150028D01*
X152062542Y-79113742D01*
%TO.C,C6*%
X146710400Y-92067742D02*
X146746685Y-92104028D01*
X146855542Y-92140314D01*
X146928114Y-92140314D01*
X147036971Y-92104028D01*
X147109542Y-92031457D01*
X147145828Y-91958885D01*
X147182114Y-91813742D01*
X147182114Y-91704885D01*
X147145828Y-91559742D01*
X147109542Y-91487171D01*
X147036971Y-91414600D01*
X146928114Y-91378314D01*
X146855542Y-91378314D01*
X146746685Y-91414600D01*
X146710400Y-91450885D01*
X146057257Y-91378314D02*
X146202400Y-91378314D01*
X146274971Y-91414600D01*
X146311257Y-91450885D01*
X146383828Y-91559742D01*
X146420114Y-91704885D01*
X146420114Y-91995171D01*
X146383828Y-92067742D01*
X146347542Y-92104028D01*
X146274971Y-92140314D01*
X146129828Y-92140314D01*
X146057257Y-92104028D01*
X146020971Y-92067742D01*
X145984685Y-91995171D01*
X145984685Y-91813742D01*
X146020971Y-91741171D01*
X146057257Y-91704885D01*
X146129828Y-91668600D01*
X146274971Y-91668600D01*
X146347542Y-91704885D01*
X146383828Y-91741171D01*
X146420114Y-91813742D01*
%TO.C,U1*%
X138012714Y-72292028D02*
X138629571Y-72292028D01*
X138702142Y-72328314D01*
X138738428Y-72364600D01*
X138774714Y-72437171D01*
X138774714Y-72582314D01*
X138738428Y-72654885D01*
X138702142Y-72691171D01*
X138629571Y-72727457D01*
X138012714Y-72727457D01*
X138774714Y-73489457D02*
X138774714Y-73054028D01*
X138774714Y-73271742D02*
X138012714Y-73271742D01*
X138121571Y-73199171D01*
X138194142Y-73126600D01*
X138230428Y-73054028D01*
%TO.C,X1*%
X151264257Y-84850514D02*
X150756257Y-85612514D01*
X150756257Y-84850514D02*
X151264257Y-85612514D01*
X150066828Y-85612514D02*
X150502257Y-85612514D01*
X150284542Y-85612514D02*
X150284542Y-84850514D01*
X150357114Y-84959371D01*
X150429685Y-85031942D01*
X150502257Y-85068228D01*
%TO.C,R11*%
X131535714Y-92626542D02*
X131172857Y-92372542D01*
X131535714Y-92191114D02*
X130773714Y-92191114D01*
X130773714Y-92481400D01*
X130810000Y-92553971D01*
X130846285Y-92590257D01*
X130918857Y-92626542D01*
X131027714Y-92626542D01*
X131100285Y-92590257D01*
X131136571Y-92553971D01*
X131172857Y-92481400D01*
X131172857Y-92191114D01*
X131535714Y-93352257D02*
X131535714Y-92916828D01*
X131535714Y-93134542D02*
X130773714Y-93134542D01*
X130882571Y-93061971D01*
X130955142Y-92989400D01*
X130991428Y-92916828D01*
X131535714Y-94077971D02*
X131535714Y-93642542D01*
X131535714Y-93860257D02*
X130773714Y-93860257D01*
X130882571Y-93787685D01*
X130955142Y-93715114D01*
X130991428Y-93642542D01*
%TO.C,R12*%
X131561114Y-88460942D02*
X131198257Y-88206942D01*
X131561114Y-88025514D02*
X130799114Y-88025514D01*
X130799114Y-88315800D01*
X130835400Y-88388371D01*
X130871685Y-88424657D01*
X130944257Y-88460942D01*
X131053114Y-88460942D01*
X131125685Y-88424657D01*
X131161971Y-88388371D01*
X131198257Y-88315800D01*
X131198257Y-88025514D01*
X131561114Y-89186657D02*
X131561114Y-88751228D01*
X131561114Y-88968942D02*
X130799114Y-88968942D01*
X130907971Y-88896371D01*
X130980542Y-88823800D01*
X131016828Y-88751228D01*
X130871685Y-89476942D02*
X130835400Y-89513228D01*
X130799114Y-89585800D01*
X130799114Y-89767228D01*
X130835400Y-89839800D01*
X130871685Y-89876085D01*
X130944257Y-89912371D01*
X131016828Y-89912371D01*
X131125685Y-89876085D01*
X131561114Y-89440657D01*
X131561114Y-89912371D01*
%TO.C,TP7*%
X141347371Y-93181714D02*
X140911942Y-93181714D01*
X141129657Y-93943714D02*
X141129657Y-93181714D01*
X140657942Y-93943714D02*
X140657942Y-93181714D01*
X140367657Y-93181714D01*
X140295085Y-93218000D01*
X140258800Y-93254285D01*
X140222514Y-93326857D01*
X140222514Y-93435714D01*
X140258800Y-93508285D01*
X140295085Y-93544571D01*
X140367657Y-93580857D01*
X140657942Y-93580857D01*
X139968514Y-93181714D02*
X139460514Y-93181714D01*
X139787085Y-93943714D01*
%TO.C,U2*%
X141692380Y-91516295D02*
X142501904Y-91516295D01*
X142597142Y-91563914D01*
X142644761Y-91611533D01*
X142692380Y-91706771D01*
X142692380Y-91897247D01*
X142644761Y-91992485D01*
X142597142Y-92040104D01*
X142501904Y-92087723D01*
X141692380Y-92087723D01*
X141787619Y-92516295D02*
X141740000Y-92563914D01*
X141692380Y-92659152D01*
X141692380Y-92897247D01*
X141740000Y-92992485D01*
X141787619Y-93040104D01*
X141882857Y-93087723D01*
X141978095Y-93087723D01*
X142120952Y-93040104D01*
X142692380Y-92468676D01*
X142692380Y-93087723D01*
D11*
%TO.C,C18*%
X135160657Y-93845742D02*
X135196942Y-93882028D01*
X135305800Y-93918314D01*
X135378371Y-93918314D01*
X135487228Y-93882028D01*
X135559800Y-93809457D01*
X135596085Y-93736885D01*
X135632371Y-93591742D01*
X135632371Y-93482885D01*
X135596085Y-93337742D01*
X135559800Y-93265171D01*
X135487228Y-93192600D01*
X135378371Y-93156314D01*
X135305800Y-93156314D01*
X135196942Y-93192600D01*
X135160657Y-93228885D01*
X134434942Y-93918314D02*
X134870371Y-93918314D01*
X134652657Y-93918314D02*
X134652657Y-93156314D01*
X134725228Y-93265171D01*
X134797800Y-93337742D01*
X134870371Y-93374028D01*
X133999514Y-93482885D02*
X134072085Y-93446600D01*
X134108371Y-93410314D01*
X134144657Y-93337742D01*
X134144657Y-93301457D01*
X134108371Y-93228885D01*
X134072085Y-93192600D01*
X133999514Y-93156314D01*
X133854371Y-93156314D01*
X133781800Y-93192600D01*
X133745514Y-93228885D01*
X133709228Y-93301457D01*
X133709228Y-93337742D01*
X133745514Y-93410314D01*
X133781800Y-93446600D01*
X133854371Y-93482885D01*
X133999514Y-93482885D01*
X134072085Y-93519171D01*
X134108371Y-93555457D01*
X134144657Y-93628028D01*
X134144657Y-93773171D01*
X134108371Y-93845742D01*
X134072085Y-93882028D01*
X133999514Y-93918314D01*
X133854371Y-93918314D01*
X133781800Y-93882028D01*
X133745514Y-93845742D01*
X133709228Y-93773171D01*
X133709228Y-93628028D01*
X133745514Y-93555457D01*
X133781800Y-93519171D01*
X133854371Y-93482885D01*
D10*
%TO.C,R6*%
X149834600Y-83123314D02*
X150088600Y-82760457D01*
X150270028Y-83123314D02*
X150270028Y-82361314D01*
X149979742Y-82361314D01*
X149907171Y-82397600D01*
X149870885Y-82433885D01*
X149834600Y-82506457D01*
X149834600Y-82615314D01*
X149870885Y-82687885D01*
X149907171Y-82724171D01*
X149979742Y-82760457D01*
X150270028Y-82760457D01*
X149181457Y-82361314D02*
X149326600Y-82361314D01*
X149399171Y-82397600D01*
X149435457Y-82433885D01*
X149508028Y-82542742D01*
X149544314Y-82687885D01*
X149544314Y-82978171D01*
X149508028Y-83050742D01*
X149471742Y-83087028D01*
X149399171Y-83123314D01*
X149254028Y-83123314D01*
X149181457Y-83087028D01*
X149145171Y-83050742D01*
X149108885Y-82978171D01*
X149108885Y-82796742D01*
X149145171Y-82724171D01*
X149181457Y-82687885D01*
X149254028Y-82651600D01*
X149399171Y-82651600D01*
X149471742Y-82687885D01*
X149508028Y-82724171D01*
X149544314Y-82796742D01*
%TO.C,C2*%
X149225000Y-70731742D02*
X149261285Y-70768028D01*
X149370142Y-70804314D01*
X149442714Y-70804314D01*
X149551571Y-70768028D01*
X149624142Y-70695457D01*
X149660428Y-70622885D01*
X149696714Y-70477742D01*
X149696714Y-70368885D01*
X149660428Y-70223742D01*
X149624142Y-70151171D01*
X149551571Y-70078600D01*
X149442714Y-70042314D01*
X149370142Y-70042314D01*
X149261285Y-70078600D01*
X149225000Y-70114885D01*
X148934714Y-70114885D02*
X148898428Y-70078600D01*
X148825857Y-70042314D01*
X148644428Y-70042314D01*
X148571857Y-70078600D01*
X148535571Y-70114885D01*
X148499285Y-70187457D01*
X148499285Y-70260028D01*
X148535571Y-70368885D01*
X148971000Y-70804314D01*
X148499285Y-70804314D01*
%TO.C,C8*%
X131852942Y-82053133D02*
X131900561Y-82005514D01*
X131948180Y-81862657D01*
X131948180Y-81767419D01*
X131900561Y-81624561D01*
X131805323Y-81529323D01*
X131710085Y-81481704D01*
X131519609Y-81434085D01*
X131376752Y-81434085D01*
X131186276Y-81481704D01*
X131091038Y-81529323D01*
X130995800Y-81624561D01*
X130948180Y-81767419D01*
X130948180Y-81862657D01*
X130995800Y-82005514D01*
X131043419Y-82053133D01*
X131376752Y-82624561D02*
X131329133Y-82529323D01*
X131281514Y-82481704D01*
X131186276Y-82434085D01*
X131138657Y-82434085D01*
X131043419Y-82481704D01*
X130995800Y-82529323D01*
X130948180Y-82624561D01*
X130948180Y-82815038D01*
X130995800Y-82910276D01*
X131043419Y-82957895D01*
X131138657Y-83005514D01*
X131186276Y-83005514D01*
X131281514Y-82957895D01*
X131329133Y-82910276D01*
X131376752Y-82815038D01*
X131376752Y-82624561D01*
X131424371Y-82529323D01*
X131471990Y-82481704D01*
X131567228Y-82434085D01*
X131757704Y-82434085D01*
X131852942Y-82481704D01*
X131900561Y-82529323D01*
X131948180Y-82624561D01*
X131948180Y-82815038D01*
X131900561Y-82910276D01*
X131852942Y-82957895D01*
X131757704Y-83005514D01*
X131567228Y-83005514D01*
X131471990Y-82957895D01*
X131424371Y-82910276D01*
X131376752Y-82815038D01*
%TO.C,C4*%
X145788742Y-92837000D02*
X145825028Y-92800714D01*
X145861314Y-92691857D01*
X145861314Y-92619285D01*
X145825028Y-92510428D01*
X145752457Y-92437857D01*
X145679885Y-92401571D01*
X145534742Y-92365285D01*
X145425885Y-92365285D01*
X145280742Y-92401571D01*
X145208171Y-92437857D01*
X145135600Y-92510428D01*
X145099314Y-92619285D01*
X145099314Y-92691857D01*
X145135600Y-92800714D01*
X145171885Y-92837000D01*
X145353314Y-93490142D02*
X145861314Y-93490142D01*
X145063028Y-93308714D02*
X145607314Y-93127285D01*
X145607314Y-93599000D01*
%TO.C,C3*%
X149402800Y-92524942D02*
X149439085Y-92561228D01*
X149547942Y-92597514D01*
X149620514Y-92597514D01*
X149729371Y-92561228D01*
X149801942Y-92488657D01*
X149838228Y-92416085D01*
X149874514Y-92270942D01*
X149874514Y-92162085D01*
X149838228Y-92016942D01*
X149801942Y-91944371D01*
X149729371Y-91871800D01*
X149620514Y-91835514D01*
X149547942Y-91835514D01*
X149439085Y-91871800D01*
X149402800Y-91908085D01*
X149148800Y-91835514D02*
X148677085Y-91835514D01*
X148931085Y-92125800D01*
X148822228Y-92125800D01*
X148749657Y-92162085D01*
X148713371Y-92198371D01*
X148677085Y-92270942D01*
X148677085Y-92452371D01*
X148713371Y-92524942D01*
X148749657Y-92561228D01*
X148822228Y-92597514D01*
X149039942Y-92597514D01*
X149112514Y-92561228D01*
X149148800Y-92524942D01*
%TO.C,C17*%
X145854057Y-74211542D02*
X145890342Y-74247828D01*
X145999200Y-74284114D01*
X146071771Y-74284114D01*
X146180628Y-74247828D01*
X146253200Y-74175257D01*
X146289485Y-74102685D01*
X146325771Y-73957542D01*
X146325771Y-73848685D01*
X146289485Y-73703542D01*
X146253200Y-73630971D01*
X146180628Y-73558400D01*
X146071771Y-73522114D01*
X145999200Y-73522114D01*
X145890342Y-73558400D01*
X145854057Y-73594685D01*
X145128342Y-74284114D02*
X145563771Y-74284114D01*
X145346057Y-74284114D02*
X145346057Y-73522114D01*
X145418628Y-73630971D01*
X145491200Y-73703542D01*
X145563771Y-73739828D01*
X144874342Y-73522114D02*
X144366342Y-73522114D01*
X144692914Y-74284114D01*
%TO.C,R10*%
X155487914Y-73271742D02*
X155125057Y-73017742D01*
X155487914Y-72836314D02*
X154725914Y-72836314D01*
X154725914Y-73126600D01*
X154762200Y-73199171D01*
X154798485Y-73235457D01*
X154871057Y-73271742D01*
X154979914Y-73271742D01*
X155052485Y-73235457D01*
X155088771Y-73199171D01*
X155125057Y-73126600D01*
X155125057Y-72836314D01*
X155487914Y-73997457D02*
X155487914Y-73562028D01*
X155487914Y-73779742D02*
X154725914Y-73779742D01*
X154834771Y-73707171D01*
X154907342Y-73634600D01*
X154943628Y-73562028D01*
X154725914Y-74469171D02*
X154725914Y-74541742D01*
X154762200Y-74614314D01*
X154798485Y-74650600D01*
X154871057Y-74686885D01*
X155016200Y-74723171D01*
X155197628Y-74723171D01*
X155342771Y-74686885D01*
X155415342Y-74650600D01*
X155451628Y-74614314D01*
X155487914Y-74541742D01*
X155487914Y-74469171D01*
X155451628Y-74396600D01*
X155415342Y-74360314D01*
X155342771Y-74324028D01*
X155197628Y-74287742D01*
X155016200Y-74287742D01*
X154871057Y-74324028D01*
X154798485Y-74360314D01*
X154762200Y-74396600D01*
X154725914Y-74469171D01*
%TO.C,C5*%
X146278600Y-83990542D02*
X146314885Y-84026828D01*
X146423742Y-84063114D01*
X146496314Y-84063114D01*
X146605171Y-84026828D01*
X146677742Y-83954257D01*
X146714028Y-83881685D01*
X146750314Y-83736542D01*
X146750314Y-83627685D01*
X146714028Y-83482542D01*
X146677742Y-83409971D01*
X146605171Y-83337400D01*
X146496314Y-83301114D01*
X146423742Y-83301114D01*
X146314885Y-83337400D01*
X146278600Y-83373685D01*
X145589171Y-83301114D02*
X145952028Y-83301114D01*
X145988314Y-83663971D01*
X145952028Y-83627685D01*
X145879457Y-83591400D01*
X145698028Y-83591400D01*
X145625457Y-83627685D01*
X145589171Y-83663971D01*
X145552885Y-83736542D01*
X145552885Y-83917971D01*
X145589171Y-83990542D01*
X145625457Y-84026828D01*
X145698028Y-84063114D01*
X145879457Y-84063114D01*
X145952028Y-84026828D01*
X145988314Y-83990542D01*
%TO.C,C15*%
X132569857Y-86276542D02*
X132606142Y-86312828D01*
X132715000Y-86349114D01*
X132787571Y-86349114D01*
X132896428Y-86312828D01*
X132969000Y-86240257D01*
X133005285Y-86167685D01*
X133041571Y-86022542D01*
X133041571Y-85913685D01*
X133005285Y-85768542D01*
X132969000Y-85695971D01*
X132896428Y-85623400D01*
X132787571Y-85587114D01*
X132715000Y-85587114D01*
X132606142Y-85623400D01*
X132569857Y-85659685D01*
X131844142Y-86349114D02*
X132279571Y-86349114D01*
X132061857Y-86349114D02*
X132061857Y-85587114D01*
X132134428Y-85695971D01*
X132207000Y-85768542D01*
X132279571Y-85804828D01*
X131154714Y-85587114D02*
X131517571Y-85587114D01*
X131553857Y-85949971D01*
X131517571Y-85913685D01*
X131445000Y-85877400D01*
X131263571Y-85877400D01*
X131191000Y-85913685D01*
X131154714Y-85949971D01*
X131118428Y-86022542D01*
X131118428Y-86203971D01*
X131154714Y-86276542D01*
X131191000Y-86312828D01*
X131263571Y-86349114D01*
X131445000Y-86349114D01*
X131517571Y-86312828D01*
X131553857Y-86276542D01*
%TO.C,L1*%
X136310914Y-81203800D02*
X136310914Y-80840942D01*
X135548914Y-80840942D01*
X136310914Y-81856942D02*
X136310914Y-81421514D01*
X136310914Y-81639228D02*
X135548914Y-81639228D01*
X135657771Y-81566657D01*
X135730342Y-81494085D01*
X135766628Y-81421514D01*
%TO.C,R8*%
X148096514Y-71526400D02*
X147733657Y-71272400D01*
X148096514Y-71090971D02*
X147334514Y-71090971D01*
X147334514Y-71381257D01*
X147370800Y-71453828D01*
X147407085Y-71490114D01*
X147479657Y-71526400D01*
X147588514Y-71526400D01*
X147661085Y-71490114D01*
X147697371Y-71453828D01*
X147733657Y-71381257D01*
X147733657Y-71090971D01*
X147661085Y-71961828D02*
X147624800Y-71889257D01*
X147588514Y-71852971D01*
X147515942Y-71816685D01*
X147479657Y-71816685D01*
X147407085Y-71852971D01*
X147370800Y-71889257D01*
X147334514Y-71961828D01*
X147334514Y-72106971D01*
X147370800Y-72179542D01*
X147407085Y-72215828D01*
X147479657Y-72252114D01*
X147515942Y-72252114D01*
X147588514Y-72215828D01*
X147624800Y-72179542D01*
X147661085Y-72106971D01*
X147661085Y-71961828D01*
X147697371Y-71889257D01*
X147733657Y-71852971D01*
X147806228Y-71816685D01*
X147951371Y-71816685D01*
X148023942Y-71852971D01*
X148060228Y-71889257D01*
X148096514Y-71961828D01*
X148096514Y-72106971D01*
X148060228Y-72179542D01*
X148023942Y-72215828D01*
X147951371Y-72252114D01*
X147806228Y-72252114D01*
X147733657Y-72215828D01*
X147697371Y-72179542D01*
X147661085Y-72106971D01*
%TO.C,C9*%
X146499942Y-82372200D02*
X146536228Y-82335914D01*
X146572514Y-82227057D01*
X146572514Y-82154485D01*
X146536228Y-82045628D01*
X146463657Y-81973057D01*
X146391085Y-81936771D01*
X146245942Y-81900485D01*
X146137085Y-81900485D01*
X145991942Y-81936771D01*
X145919371Y-81973057D01*
X145846800Y-82045628D01*
X145810514Y-82154485D01*
X145810514Y-82227057D01*
X145846800Y-82335914D01*
X145883085Y-82372200D01*
X146572514Y-82735057D02*
X146572514Y-82880200D01*
X146536228Y-82952771D01*
X146499942Y-82989057D01*
X146391085Y-83061628D01*
X146245942Y-83097914D01*
X145955657Y-83097914D01*
X145883085Y-83061628D01*
X145846800Y-83025342D01*
X145810514Y-82952771D01*
X145810514Y-82807628D01*
X145846800Y-82735057D01*
X145883085Y-82698771D01*
X145955657Y-82662485D01*
X146137085Y-82662485D01*
X146209657Y-82698771D01*
X146245942Y-82735057D01*
X146282228Y-82807628D01*
X146282228Y-82952771D01*
X146245942Y-83025342D01*
X146209657Y-83061628D01*
X146137085Y-83097914D01*
%TO.C,R4*%
X130048000Y-79313314D02*
X130302000Y-78950457D01*
X130483428Y-79313314D02*
X130483428Y-78551314D01*
X130193142Y-78551314D01*
X130120571Y-78587600D01*
X130084285Y-78623885D01*
X130048000Y-78696457D01*
X130048000Y-78805314D01*
X130084285Y-78877885D01*
X130120571Y-78914171D01*
X130193142Y-78950457D01*
X130483428Y-78950457D01*
X129394857Y-78805314D02*
X129394857Y-79313314D01*
X129576285Y-78515028D02*
X129757714Y-79059314D01*
X129286000Y-79059314D01*
%TO.C,C14*%
X147809857Y-78326342D02*
X147846142Y-78362628D01*
X147955000Y-78398914D01*
X148027571Y-78398914D01*
X148136428Y-78362628D01*
X148209000Y-78290057D01*
X148245285Y-78217485D01*
X148281571Y-78072342D01*
X148281571Y-77963485D01*
X148245285Y-77818342D01*
X148209000Y-77745771D01*
X148136428Y-77673200D01*
X148027571Y-77636914D01*
X147955000Y-77636914D01*
X147846142Y-77673200D01*
X147809857Y-77709485D01*
X147084142Y-78398914D02*
X147519571Y-78398914D01*
X147301857Y-78398914D02*
X147301857Y-77636914D01*
X147374428Y-77745771D01*
X147447000Y-77818342D01*
X147519571Y-77854628D01*
X146431000Y-77890914D02*
X146431000Y-78398914D01*
X146612428Y-77600628D02*
X146793857Y-78144914D01*
X146322142Y-78144914D01*
%TO.C,U3*%
X140585371Y-76239914D02*
X140585371Y-76856771D01*
X140549085Y-76929342D01*
X140512800Y-76965628D01*
X140440228Y-77001914D01*
X140295085Y-77001914D01*
X140222514Y-76965628D01*
X140186228Y-76929342D01*
X140149942Y-76856771D01*
X140149942Y-76239914D01*
X139859657Y-76239914D02*
X139387942Y-76239914D01*
X139641942Y-76530200D01*
X139533085Y-76530200D01*
X139460514Y-76566485D01*
X139424228Y-76602771D01*
X139387942Y-76675342D01*
X139387942Y-76856771D01*
X139424228Y-76929342D01*
X139460514Y-76965628D01*
X139533085Y-77001914D01*
X139750800Y-77001914D01*
X139823371Y-76965628D01*
X139859657Y-76929342D01*
X141140900Y-75921980D02*
X141140900Y-76160076D01*
X141378995Y-76064838D02*
X141140900Y-76160076D01*
X140902804Y-76064838D01*
X141283757Y-76350552D02*
X141140900Y-76160076D01*
X140998042Y-76350552D01*
X141140900Y-75921980D02*
X141140900Y-76160076D01*
X141378995Y-76064838D02*
X141140900Y-76160076D01*
X140902804Y-76064838D01*
X141283757Y-76350552D02*
X141140900Y-76160076D01*
X140998042Y-76350552D01*
%TO.C,C1*%
X139192000Y-67582142D02*
X139228285Y-67618428D01*
X139337142Y-67654714D01*
X139409714Y-67654714D01*
X139518571Y-67618428D01*
X139591142Y-67545857D01*
X139627428Y-67473285D01*
X139663714Y-67328142D01*
X139663714Y-67219285D01*
X139627428Y-67074142D01*
X139591142Y-67001571D01*
X139518571Y-66929000D01*
X139409714Y-66892714D01*
X139337142Y-66892714D01*
X139228285Y-66929000D01*
X139192000Y-66965285D01*
X138466285Y-67654714D02*
X138901714Y-67654714D01*
X138684000Y-67654714D02*
X138684000Y-66892714D01*
X138756571Y-67001571D01*
X138829142Y-67074142D01*
X138901714Y-67110428D01*
%TO.C,U7*%
X153539371Y-75985914D02*
X153539371Y-76602771D01*
X153503085Y-76675342D01*
X153466800Y-76711628D01*
X153394228Y-76747914D01*
X153249085Y-76747914D01*
X153176514Y-76711628D01*
X153140228Y-76675342D01*
X153103942Y-76602771D01*
X153103942Y-75985914D01*
X152813657Y-75985914D02*
X152305657Y-75985914D01*
X152632228Y-76747914D01*
%TO.C,Q1*%
X131633685Y-76178228D02*
X131597400Y-76105657D01*
X131524828Y-76033085D01*
X131415971Y-75924228D01*
X131379685Y-75851657D01*
X131379685Y-75779085D01*
X131561114Y-75815371D02*
X131524828Y-75742800D01*
X131452257Y-75670228D01*
X131307114Y-75633942D01*
X131053114Y-75633942D01*
X130907971Y-75670228D01*
X130835400Y-75742800D01*
X130799114Y-75815371D01*
X130799114Y-75960514D01*
X130835400Y-76033085D01*
X130907971Y-76105657D01*
X131053114Y-76141942D01*
X131307114Y-76141942D01*
X131452257Y-76105657D01*
X131524828Y-76033085D01*
X131561114Y-75960514D01*
X131561114Y-75815371D01*
X131561114Y-76867657D02*
X131561114Y-76432228D01*
X131561114Y-76649942D02*
X130799114Y-76649942D01*
X130907971Y-76577371D01*
X130980542Y-76504800D01*
X131016828Y-76432228D01*
%TO.C,C16*%
X145447657Y-67582142D02*
X145483942Y-67618428D01*
X145592800Y-67654714D01*
X145665371Y-67654714D01*
X145774228Y-67618428D01*
X145846800Y-67545857D01*
X145883085Y-67473285D01*
X145919371Y-67328142D01*
X145919371Y-67219285D01*
X145883085Y-67074142D01*
X145846800Y-67001571D01*
X145774228Y-66929000D01*
X145665371Y-66892714D01*
X145592800Y-66892714D01*
X145483942Y-66929000D01*
X145447657Y-66965285D01*
X144721942Y-67654714D02*
X145157371Y-67654714D01*
X144939657Y-67654714D02*
X144939657Y-66892714D01*
X145012228Y-67001571D01*
X145084800Y-67074142D01*
X145157371Y-67110428D01*
X144068800Y-66892714D02*
X144213942Y-66892714D01*
X144286514Y-66929000D01*
X144322800Y-66965285D01*
X144395371Y-67074142D01*
X144431657Y-67219285D01*
X144431657Y-67509571D01*
X144395371Y-67582142D01*
X144359085Y-67618428D01*
X144286514Y-67654714D01*
X144141371Y-67654714D01*
X144068800Y-67618428D01*
X144032514Y-67582142D01*
X143996228Y-67509571D01*
X143996228Y-67328142D01*
X144032514Y-67255571D01*
X144068800Y-67219285D01*
X144141371Y-67183000D01*
X144286514Y-67183000D01*
X144359085Y-67219285D01*
X144395371Y-67255571D01*
X144431657Y-67328142D01*
%TO.C,R1*%
X149199600Y-67959514D02*
X149453600Y-67596657D01*
X149635028Y-67959514D02*
X149635028Y-67197514D01*
X149344742Y-67197514D01*
X149272171Y-67233800D01*
X149235885Y-67270085D01*
X149199600Y-67342657D01*
X149199600Y-67451514D01*
X149235885Y-67524085D01*
X149272171Y-67560371D01*
X149344742Y-67596657D01*
X149635028Y-67596657D01*
X148473885Y-67959514D02*
X148909314Y-67959514D01*
X148691600Y-67959514D02*
X148691600Y-67197514D01*
X148764171Y-67306371D01*
X148836742Y-67378942D01*
X148909314Y-67415228D01*
%TO.C,C11*%
X133408057Y-74846542D02*
X133444342Y-74882828D01*
X133553200Y-74919114D01*
X133625771Y-74919114D01*
X133734628Y-74882828D01*
X133807200Y-74810257D01*
X133843485Y-74737685D01*
X133879771Y-74592542D01*
X133879771Y-74483685D01*
X133843485Y-74338542D01*
X133807200Y-74265971D01*
X133734628Y-74193400D01*
X133625771Y-74157114D01*
X133553200Y-74157114D01*
X133444342Y-74193400D01*
X133408057Y-74229685D01*
X132682342Y-74919114D02*
X133117771Y-74919114D01*
X132900057Y-74919114D02*
X132900057Y-74157114D01*
X132972628Y-74265971D01*
X133045200Y-74338542D01*
X133117771Y-74374828D01*
X131956628Y-74919114D02*
X132392057Y-74919114D01*
X132174342Y-74919114D02*
X132174342Y-74157114D01*
X132246914Y-74265971D01*
X132319485Y-74338542D01*
X132392057Y-74374828D01*
D12*
%TO.C,C12*%
X143381400Y-77302052D02*
X143381400Y-76779548D01*
X141911400Y-77302052D02*
X141911400Y-76779548D01*
%TO.C,C7*%
X137508348Y-93648200D02*
X138030852Y-93648200D01*
X137508348Y-92178200D02*
X138030852Y-92178200D01*
%TO.C,U4*%
X149614400Y-81152000D02*
X149614400Y-79252000D01*
X151934400Y-79752000D02*
X151934400Y-81152000D01*
%TO.C,C2*%
X144332011Y-70808202D02*
X144166796Y-70669570D01*
X143869204Y-71359754D02*
X143703989Y-71221122D01*
%TO.C,C10*%
X143486200Y-80626852D02*
X143486200Y-80104348D01*
X144956200Y-80626852D02*
X144956200Y-80104348D01*
%TO.C,R9*%
X153341336Y-67540200D02*
X153795464Y-67540200D01*
X153341336Y-69010200D02*
X153795464Y-69010200D01*
%TO.C,C13*%
X149751148Y-78509800D02*
X150273652Y-78509800D01*
X149751148Y-77039800D02*
X150273652Y-77039800D01*
%TO.C,C6*%
X146886600Y-89349948D02*
X146886600Y-89872452D01*
X145416600Y-89349948D02*
X145416600Y-89872452D01*
%TO.C,U1*%
X143700000Y-70773000D02*
X143225000Y-70773000D01*
X139480000Y-74993000D02*
X139955000Y-74993000D01*
X139480000Y-74518000D02*
X139480000Y-74993000D01*
X143700000Y-71248000D02*
X143700000Y-70773000D01*
X139480000Y-71248000D02*
X139480000Y-70773000D01*
X143700000Y-74518000D02*
X143700000Y-74993000D01*
X143700000Y-74993000D02*
X143225000Y-74993000D01*
%TO.C,X1*%
X151125000Y-89078000D02*
X147325000Y-89078000D01*
X151125000Y-85928000D02*
X151125000Y-89078000D01*
%TO.C,R11*%
X133373800Y-91060536D02*
X133373800Y-91514664D01*
X131903800Y-91060536D02*
X131903800Y-91514664D01*
%TO.C,R12*%
X131903800Y-88112964D02*
X131903800Y-87658836D01*
X133373800Y-88112964D02*
X133373800Y-87658836D01*
%TO.C,TP7*%
X140857200Y-92049600D02*
G75*
G03*
X140857200Y-92049600I-700000J0D01*
G01*
%TO.C,U2*%
X142733000Y-82546800D02*
X143183000Y-82546800D01*
X136413000Y-82546800D02*
X135963000Y-82546800D01*
X143183000Y-82546800D02*
X143183000Y-82996800D01*
X135963000Y-89766800D02*
X135963000Y-89316800D01*
X143183000Y-82996800D02*
X144473000Y-82996800D01*
X143183000Y-89766800D02*
X143183000Y-89316800D01*
X135963000Y-82546800D02*
X135963000Y-82996800D01*
X142733000Y-89766800D02*
X143183000Y-89766800D01*
X136413000Y-89766800D02*
X135963000Y-89766800D01*
%TO.C,C18*%
X135355000Y-90990748D02*
X135355000Y-91513252D01*
X133885000Y-90990748D02*
X133885000Y-91513252D01*
%TO.C,R6*%
X147245400Y-83491336D02*
X147245400Y-83945464D01*
X148715400Y-83491336D02*
X148715400Y-83945464D01*
%TO.C,C2*%
X149407200Y-69081764D02*
X149407200Y-69297436D01*
X148687200Y-69081764D02*
X148687200Y-69297436D01*
%TO.C,C8*%
X133627800Y-82521652D02*
X133627800Y-81999148D01*
X132157800Y-82521652D02*
X132157800Y-81999148D01*
%TO.C,C4*%
X144651400Y-91635948D02*
X144651400Y-92158452D01*
X143181400Y-91635948D02*
X143181400Y-92158452D01*
%TO.C,C3*%
X149552252Y-91286000D02*
X149029748Y-91286000D01*
X149552252Y-89816000D02*
X149029748Y-89816000D01*
%TO.C,C17*%
X147750200Y-75379948D02*
X147750200Y-75902452D01*
X146280200Y-75379948D02*
X146280200Y-75902452D01*
%TO.C,R10*%
X153795464Y-69572200D02*
X153341336Y-69572200D01*
X153795464Y-71042200D02*
X153341336Y-71042200D01*
%TO.C,C5*%
X145492800Y-86179252D02*
X145492800Y-85656748D01*
X146962800Y-86179252D02*
X146962800Y-85656748D01*
%TO.C,C15*%
X132966052Y-83948600D02*
X132443548Y-83948600D01*
X132966052Y-85418600D02*
X132443548Y-85418600D01*
%TO.C,L1*%
X134212400Y-81628822D02*
X134212400Y-80829578D01*
X135332400Y-81628822D02*
X135332400Y-80829578D01*
%TO.C,R8*%
X149531336Y-72617000D02*
X149985464Y-72617000D01*
X149531336Y-71147000D02*
X149985464Y-71147000D01*
%TO.C,C9*%
X145467400Y-80591252D02*
X145467400Y-80068748D01*
X146937400Y-80591252D02*
X146937400Y-80068748D01*
%TO.C,J3*%
X128955000Y-71002000D02*
X129375000Y-71002000D01*
X128955000Y-69022000D02*
X128955000Y-71002000D01*
X131405000Y-71682000D02*
X130955000Y-71682000D01*
X130955000Y-71232000D02*
X130955000Y-71682000D01*
X136475000Y-71002000D02*
X136055000Y-71002000D01*
X128955000Y-66652000D02*
X128955000Y-67052000D01*
X136475000Y-67052000D02*
X136475000Y-66652000D01*
X136475000Y-69022000D02*
X136475000Y-71002000D01*
%TO.C,R4*%
X131040200Y-79071736D02*
X131040200Y-79525864D01*
X132510200Y-79071736D02*
X132510200Y-79525864D01*
%TO.C,C14*%
X148817000Y-80611652D02*
X148817000Y-80089148D01*
X147347000Y-80611652D02*
X147347000Y-80089148D01*
%TO.C,U3*%
X137109200Y-77419200D02*
X140360400Y-77419200D01*
X140360400Y-80670400D02*
X137109200Y-80670400D01*
%TO.C,C1*%
X141790052Y-67845000D02*
X141267548Y-67845000D01*
X141790052Y-69315000D02*
X141267548Y-69315000D01*
%TO.C,U7*%
X150063200Y-73217600D02*
X149263200Y-73217600D01*
X150063200Y-76337600D02*
X150863200Y-76337600D01*
X150063200Y-73217600D02*
X151863200Y-73217600D01*
X150063200Y-76337600D02*
X149263200Y-76337600D01*
%TO.C,Q1*%
X135037000Y-77520800D02*
X135037000Y-76870800D01*
X131917000Y-77520800D02*
X131917000Y-78170800D01*
X135037000Y-77520800D02*
X135037000Y-78170800D01*
X131917000Y-77520800D02*
X131917000Y-75845800D01*
%TO.C,C16*%
X147801000Y-69450852D02*
X147801000Y-68928348D01*
X146331000Y-69450852D02*
X146331000Y-68928348D01*
%TO.C,R1*%
X151661800Y-68960636D02*
X151661800Y-69414764D01*
X150191800Y-68960636D02*
X150191800Y-69414764D01*
%TO.C,C11*%
X133393548Y-72264600D02*
X133916052Y-72264600D01*
X133393548Y-73734600D02*
X133916052Y-73734600D01*
%TD*%
M02*
